<?xml version="1.0" encoding="UTF-8"?>
<svg width="957px" height="73px" viewBox="0 0 957 73" version="1.1" xmlns="http://www.w3.org/2000/svg" xmlns:xlink="http://www.w3.org/1999/xlink">
    <!-- Generator: Sketch 52.6 (67491) - http://www.bohemiancoding.com/sketch -->
    <title>Group 15</title>
    <desc>Created with Sketch.</desc>
    <g id="Final" stroke="none" stroke-width="1" fill="none" fill-rule="evenodd" stroke-linecap="square">
        <g id="Publications-V3" transform="translate(-335.000000, -285.000000)" stroke="#454149" stroke-width="2">
            <g id="Group-15" transform="translate(335.000000, 286.000000)">
                <path d="M574.273499,0.845238095 L538.84357,70.1547619" id="Line-3"></path>
                <path d="M552.273499,0.845238095 L516.84357,70.1547619" id="Line-3-Copy-9"></path>
                <path d="M529.273499,0.845238095 L493.84357,70.1547619" id="Line-3-Copy-10"></path>
                <path d="M507.273499,0.845238095 L471.84357,70.1547619" id="Line-3-Copy-11"></path>
                <path d="M484.273499,0.845238095 L448.84357,70.1547619" id="Line-3-Copy-12"></path>
                <path d="M462.273499,0.845238095 L426.84357,70.1547619" id="Line-3-Copy-13"></path>
                <path d="M440.273499,0.845238095 L404.84357,70.1547619" id="Line-3-Copy-14"></path>
                <path d="M641.273499,0.845238095 L605.84357,70.1547619" id="Line-3-Copy-3"></path>
                <path d="M708.273499,0.845238095 L672.84357,70.1547619" id="Line-3-Copy-6"></path>
                <path d="M596.273499,0.845238095 L560.84357,70.1547619" id="Line-3-Copy"></path>
                <path d="M664.273499,0.845238095 L628.84357,70.1547619" id="Line-3-Copy-4"></path>
                <path d="M731.273499,0.845238095 L695.84357,70.1547619" id="Line-3-Copy-7"></path>
                <path d="M619.273499,0.845238095 L583.84357,70.1547619" id="Line-3-Copy-2"></path>
                <path d="M686.273499,0.845238095 L650.84357,70.1547619" id="Line-3-Copy-5"></path>
                <path d="M753.273499,0.845238095 L717.84357,70.1547619" id="Line-3-Copy-8"></path>
                <path d="M775.273499,0.845238095 L739.84357,70.1547619" id="Line-3"></path>
                <path d="M843.273499,0.845238095 L807.84357,70.1547619" id="Line-3-Copy-3"></path>
                <path d="M910.273499,0.845238095 L874.84357,70.1547619" id="Line-3-Copy-6"></path>
                <path d="M798.273499,0.845238095 L762.84357,70.1547619" id="Line-3-Copy"></path>
                <path d="M865.273499,0.845238095 L829.84357,70.1547619" id="Line-3-Copy-4"></path>
                <path d="M932.273499,0.845238095 L896.84357,70.1547619" id="Line-3-Copy-7"></path>
                <path d="M820.273499,0.845238095 L784.84357,70.1547619" id="Line-3-Copy-2"></path>
                <path d="M887.273499,0.845238095 L851.84357,70.1547619" id="Line-3-Copy-5"></path>
                <path d="M955.273499,0.845238095 L919.84357,70.1547619" id="Line-3-Copy-8"></path>
                <path d="M36.8482391,0.845238095 L1.41830958,70.1547619" id="Line-3"></path>
                <path d="M104.273499,0.845238095 L68.8435698,70.1547619" id="Line-3-Copy-3"></path>
                <path d="M171.273499,0.845238095 L135.84357,70.1547619" id="Line-3-Copy-6"></path>
                <path d="M59.2734993,0.845238095 L23.8435698,70.1547619" id="Line-3-Copy"></path>
                <path d="M126.273499,0.845238095 L90.8435698,70.1547619" id="Line-3-Copy-4"></path>
                <path d="M193.273499,0.845238095 L157.84357,70.1547619" id="Line-3-Copy-7"></path>
                <path d="M81.2734993,0.845238095 L45.8435698,70.1547619" id="Line-3-Copy-2"></path>
                <path d="M149.273499,0.845238095 L113.84357,70.1547619" id="Line-3-Copy-5"></path>
                <path d="M216.273499,0.845238095 L180.84357,70.1547619" id="Line-3-Copy-8"></path>
                <path d="M238.273499,0.845238095 L202.84357,70.1547619" id="Line-3"></path>
                <path d="M305.273499,0.845238095 L269.84357,70.1547619" id="Line-3-Copy-3"></path>
                <path d="M372.273499,0.845238095 L336.84357,70.1547619" id="Line-3-Copy-6"></path>
                <path d="M260.273499,0.845238095 L224.84357,70.1547619" id="Line-3-Copy"></path>
                <path d="M328.273499,0.845238095 L292.84357,70.1547619" id="Line-3-Copy-4"></path>
                <path d="M395.273499,0.845238095 L359.84357,70.1547619" id="Line-3-Copy-7"></path>
                <path d="M283.273499,0.845238095 L247.84357,70.1547619" id="Line-3-Copy-2"></path>
                <path d="M350.273499,0.845238095 L314.84357,70.1547619" id="Line-3-Copy-5"></path>
                <path d="M417.273499,0.845238095 L381.84357,70.1547619" id="Line-3-Copy-8"></path>
            </g>
        </g>
    </g>
</svg>