<?xml version="1.0" encoding="UTF-8" standalone="no"?>
<!DOCTYPE svg PUBLIC "-//W3C//DTD SVG 1.1//EN" "http://www.w3.org/Graphics/SVG/1.1/DTD/svg11.dtd">
<svg xmlns="http://www.w3.org/2000/svg" xmlns:xlink="http://www.w3.org/1999/xlink" version="1.1" width="1173pt" height="262pt" viewBox="0 0 1173 262">
<g enable-background="new">
<clipPath id="cp0">
<path transform="matrix(1,0,0,-1,0,262)" d="M 0 0 L 1173 0 L 1173 262 L 0 262 Z "/>
</clipPath>
<g clip-path="url(#cp0)">
<path transform="matrix(1,0,0,-1,0,262)" d="M 0 262 L 1173 262 L 1173 0 L 0 0 Z " fill="#ffffff"/>
</g>
<path transform="matrix(.00007874016,0,0,.00007874016,365.5,23.5)" stroke-width="38100" stroke-linecap="butt" stroke-miterlimit="8" stroke-linejoin="miter" fill="none" stroke="#507e32" d="M 0 0 L 1 889999 "/>
<path transform="matrix(.00007874016,0,0,.00007874016,365.5,23.5)" stroke-width="38100" stroke-linecap="butt" stroke-miterlimit="8" stroke-linejoin="miter" fill="none" stroke="#507e32" d="M 0 0 L 786122 889999 "/>
<path transform="matrix(.00007874016,0,0,.00007874016,427.5,23.5)" stroke-width="38100" stroke-linecap="butt" stroke-miterlimit="8" stroke-linejoin="miter" fill="none" stroke="#507e32" d="M 0 0 L 786122 889999 "/>
<path transform="matrix(.00007874016,0,0,-.00007874016,427.5,93.578708)" stroke-width="38100" stroke-linecap="butt" stroke-miterlimit="8" stroke-linejoin="miter" fill="none" stroke="#507e32" d="M 0 0 L 786122 889999 "/>
<path transform="matrix(.00007874016,0,0,.00007874016,489.5,23.5)" stroke-width="38100" stroke-linecap="butt" stroke-miterlimit="8" stroke-linejoin="miter" fill="none" stroke="#507e32" d="M 0 0 L 1 889999 "/>
<path transform="matrix(.00007874016,0,0,.00007874016,365.5,115.5)" stroke-width="38100" stroke-linecap="butt" stroke-miterlimit="8" stroke-linejoin="miter" fill="none" stroke="#507e32" d="M 0 0 L 1572242 889999 "/>
<path transform="matrix(.00007874016,0,0,.00007874016,427.5,115.5)" stroke-width="38100" stroke-linecap="butt" stroke-miterlimit="8" stroke-linejoin="miter" fill="none" stroke="#507e32" d="M 0 0 L 1 889999 "/>
<path transform="matrix(.00007874016,0,0,-.00007874016,427.5,185.57866)" stroke-width="38100" stroke-linecap="butt" stroke-miterlimit="8" stroke-linejoin="miter" fill="none" stroke="#507e32" d="M 0 0 L 786122 889999 "/>
<path transform="matrix(-.00007874016,-0,0,.00007874016,427.3994,115.5)" stroke-width="38100" stroke-linecap="butt" stroke-miterlimit="8" stroke-linejoin="miter" fill="none" stroke="#507e32" d="M 0 0 L 786122 889998 "/>
<path transform="matrix(.00007874016,0,0,.00007874016,354,1)" stroke-width="25400" stroke-linecap="butt" stroke-miterlimit="8" stroke-linejoin="miter" fill="none" stroke="#000000" d="M 0 139700 C 0 62545.82 62545.82 0 139700 0 C 216854.2 0 279400 62545.82 279400 139700 C 279400 216854.2 216854.2 279400 139700 279400 C 62545.82 279400 0 216854.2 0 139700 Z "/>
<path transform="matrix(.00007874016,0,0,.00007874016,416,1)" stroke-width="25400" stroke-linecap="butt" stroke-miterlimit="8" stroke-linejoin="miter" fill="none" stroke="#000000" d="M 0 139700 C 0 62545.82 62545.82 0 139700 0 C 216854.2 0 279400 62545.82 279400 139700 C 279400 216854.2 216854.2 279400 139700 279400 C 62545.82 279400 0 216854.2 0 139700 Z "/>
<path transform="matrix(.00007874016,0,0,.00007874016,478,1)" stroke-width="25400" stroke-linecap="butt" stroke-miterlimit="8" stroke-linejoin="miter" fill="none" stroke="#000000" d="M 0 139700 C 0 62545.82 62545.82 0 139700 0 C 216854.2 0 279400 62545.82 279400 139700 C 279400 216854.2 216854.2 279400 139700 279400 C 62545.82 279400 0 216854.2 0 139700 Z "/>
<path transform="matrix(.00007874016,0,0,.00007874016,354,93)" stroke-width="25400" stroke-linecap="butt" stroke-miterlimit="8" stroke-linejoin="miter" fill="none" stroke="#000000" d="M 0 139700 C 0 62545.82 62545.82 0 139700 0 C 216854.2 0 279400 62545.82 279400 139700 C 279400 216854.2 216854.2 279400 139700 279400 C 62545.82 279400 0 216854.2 0 139700 Z "/>
<path transform="matrix(.00007874016,0,0,.00007874016,416,93)" stroke-width="25400" stroke-linecap="butt" stroke-miterlimit="8" stroke-linejoin="miter" fill="none" stroke="#000000" d="M 0 139700 C 0 62545.82 62545.82 0 139700 0 C 216854.2 0 279400 62545.82 279400 139700 C 279400 216854.2 216854.2 279400 139700 279400 C 62545.82 279400 0 216854.2 0 139700 Z "/>
<path transform="matrix(.00007874016,0,0,.00007874016,478,93)" stroke-width="25400" stroke-linecap="butt" stroke-miterlimit="8" stroke-linejoin="miter" fill="none" stroke="#000000" d="M 0 139700 C 0 62545.82 62545.82 0 139700 0 C 216854.2 0 279400 62545.82 279400 139700 C 279400 216854.2 216854.2 279400 139700 279400 C 62545.82 279400 0 216854.2 0 139700 Z "/>
<path transform="matrix(.00007874016,0,0,.00007874016,354,185)" stroke-width="25400" stroke-linecap="butt" stroke-miterlimit="8" stroke-linejoin="miter" fill="none" stroke="#000000" d="M 0 139700 C 0 62545.82 62545.82 0 139700 0 C 216854.2 0 279400 62545.82 279400 139700 C 279400 216854.2 216854.2 279400 139700 279400 C 62545.82 279400 0 216854.2 0 139700 Z "/>
<path transform="matrix(.00007874016,0,0,.00007874016,416,185)" stroke-width="25400" stroke-linecap="butt" stroke-miterlimit="8" stroke-linejoin="miter" fill="none" stroke="#000000" d="M 0 139700 C 0 62545.82 62545.82 0 139700 0 C 216854.2 0 279400 62545.82 279400 139700 C 279400 216854.2 216854.2 279400 139700 279400 C 62545.82 279400 0 216854.2 0 139700 Z "/>
<path transform="matrix(.00007874016,0,0,.00007874016,478,185)" stroke-width="25400" stroke-linecap="butt" stroke-miterlimit="8" stroke-linejoin="miter" fill="none" stroke="#000000" d="M 0 139700 C 0 62545.82 62545.82 0 139700 0 C 216854.2 0 279400 62545.82 279400 139700 C 279400 216854.2 216854.2 279400 139700 279400 C 62545.82 279400 0 216854.2 0 139700 Z "/>
<path transform="matrix(.00007874016,0,0,.00007874016,71.5,23.5)" stroke-width="38100" stroke-linecap="butt" stroke-miterlimit="8" stroke-linejoin="miter" fill="none" stroke="#507e32" d="M 0 0 L 1 889999 "/>
<path transform="matrix(.00007874016,0,0,.00007874016,71.5,23.5)" stroke-width="38100" stroke-linecap="butt" stroke-miterlimit="8" stroke-linejoin="miter" fill="none" stroke="#507e32" d="M 0 0 L 786122 889999 "/>
<path transform="matrix(.00007874016,0,0,.00007874016,71.5,23.5)" stroke-width="38100" stroke-linecap="butt" stroke-miterlimit="8" stroke-linejoin="miter" fill="none" stroke="#507e32" d="M 0 0 L 1572242 889999 "/>
<path transform="matrix(.00007874016,0,0,.00007874016,133.5,23.5)" stroke-width="38100" stroke-linecap="butt" stroke-miterlimit="8" stroke-linejoin="miter" fill="none" stroke="#507e32" d="M 0 0 L 1 889999 "/>
<path transform="matrix(-.00007874016,-0,0,.00007874016,133.3994,23.5)" stroke-width="38100" stroke-linecap="butt" stroke-miterlimit="8" stroke-linejoin="miter" fill="none" stroke="#507e32" d="M 0 0 L 786122 889999 "/>
<path transform="matrix(.00007874016,0,0,.00007874016,133.5,23.5)" stroke-width="38100" stroke-linecap="butt" stroke-miterlimit="8" stroke-linejoin="miter" fill="none" stroke="#507e32" d="M 0 0 L 786122 889999 "/>
<path transform="matrix(.00007874016,0,0,-.00007874016,133.5,93.578708)" stroke-width="38100" stroke-linecap="butt" stroke-miterlimit="8" stroke-linejoin="miter" fill="none" stroke="#507e32" d="M 0 0 L 786122 889999 "/>
<path transform="matrix(.00007874016,0,0,.00007874016,195.5,23.5)" stroke-width="38100" stroke-linecap="butt" stroke-miterlimit="8" stroke-linejoin="miter" fill="none" stroke="#507e32" d="M 0 0 L 1 889999 "/>
<path transform="matrix(.00007874016,0,0,.00007874016,71.5,115.5)" stroke-width="38100" stroke-linecap="butt" stroke-miterlimit="8" stroke-linejoin="miter" fill="none" stroke="#507e32" d="M 0 0 L 1 889999 "/>
<path transform="matrix(.00007874016,0,0,.00007874016,71.5,115.5)" stroke-width="38100" stroke-linecap="butt" stroke-miterlimit="8" stroke-linejoin="miter" fill="none" stroke="#507e32" d="M 0 0 L 786122 889999 "/>
<path transform="matrix(.00007874016,0,0,.00007874016,71.5,115.5)" stroke-width="38100" stroke-linecap="butt" stroke-miterlimit="8" stroke-linejoin="miter" fill="none" stroke="#507e32" d="M 0 0 L 1572242 889999 "/>
<path transform="matrix(.00007874016,0,0,.00007874016,133.5,115.5)" stroke-width="38100" stroke-linecap="butt" stroke-miterlimit="8" stroke-linejoin="miter" fill="none" stroke="#507e32" d="M 0 0 L 1 889999 "/>
<path transform="matrix(-.00007874016,-0,0,.00007874016,133.3994,115.5)" stroke-width="38100" stroke-linecap="butt" stroke-miterlimit="8" stroke-linejoin="miter" fill="none" stroke="#507e32" d="M 0 0 L 786122 889999 "/>
<path transform="matrix(.00007874016,0,0,.00007874016,133.5,115.5)" stroke-width="38100" stroke-linecap="butt" stroke-miterlimit="8" stroke-linejoin="miter" fill="none" stroke="#507e32" d="M 0 0 L 786122 889999 "/>
<path transform="matrix(.00007874016,0,0,-.00007874016,133.5,185.57866)" stroke-width="38100" stroke-linecap="butt" stroke-miterlimit="8" stroke-linejoin="miter" fill="none" stroke="#507e32" d="M 0 0 L 786122 889999 "/>
<path transform="matrix(.00007874016,0,0,.00007874016,195.5,115.5)" stroke-width="38100" stroke-linecap="butt" stroke-miterlimit="8" stroke-linejoin="miter" fill="none" stroke="#507e32" d="M 0 0 L 1 889999 "/>
<path transform="matrix(-.00007874016,-0,0,.00007874016,195.2986,23.5)" stroke-width="38100" stroke-linecap="butt" stroke-miterlimit="8" stroke-linejoin="miter" fill="none" stroke="#507e32" d="M 0 0 L 1572242 889999 "/>
<path transform="matrix(-.00007874016,-0,0,.00007874016,195.2986,115.5)" stroke-width="38100" stroke-linecap="butt" stroke-miterlimit="8" stroke-linejoin="miter" fill="none" stroke="#507e32" d="M 0 0 L 1572242 889999 "/>
<path transform="matrix(.00007874016,0,0,.00007874016,61,1)" stroke-width="25400" stroke-linecap="butt" stroke-miterlimit="8" stroke-linejoin="miter" fill="none" stroke="#000000" d="M 0 139700 C 0 62545.82 59702.82 0 133350 0 C 206997.2 0 266700 62545.82 266700 139700 C 266700 216854.2 206997.2 279400 133350 279400 C 59702.82 279400 0 216854.2 0 139700 Z "/>
<path transform="matrix(.00007874016,0,0,.00007874016,123,1)" stroke-width="25400" stroke-linecap="butt" stroke-miterlimit="8" stroke-linejoin="miter" fill="none" stroke="#000000" d="M 0 139700 C 0 62545.82 59702.82 0 133350 0 C 206997.2 0 266700 62545.82 266700 139700 C 266700 216854.2 206997.2 279400 133350 279400 C 59702.82 279400 0 216854.2 0 139700 Z "/>
<path transform="matrix(.00007874016,0,0,.00007874016,184,1)" stroke-width="25400" stroke-linecap="butt" stroke-miterlimit="8" stroke-linejoin="miter" fill="none" stroke="#000000" d="M 0 139700 C 0 62545.82 62545.82 0 139700 0 C 216854.2 0 279400 62545.82 279400 139700 C 279400 216854.2 216854.2 279400 139700 279400 C 62545.82 279400 0 216854.2 0 139700 Z "/>
<path transform="matrix(.00007874016,0,0,.00007874016,61,93)" stroke-width="25400" stroke-linecap="butt" stroke-miterlimit="8" stroke-linejoin="miter" fill="none" stroke="#000000" d="M 0 139700 C 0 62545.82 59702.82 0 133350 0 C 206997.2 0 266700 62545.82 266700 139700 C 266700 216854.2 206997.2 279400 133350 279400 C 59702.82 279400 0 216854.2 0 139700 Z "/>
<path transform="matrix(.00007874016,0,0,.00007874016,123,93)" stroke-width="25400" stroke-linecap="butt" stroke-miterlimit="8" stroke-linejoin="miter" fill="none" stroke="#000000" d="M 0 139700 C 0 62545.82 59702.82 0 133350 0 C 206997.2 0 266700 62545.82 266700 139700 C 266700 216854.2 206997.2 279400 133350 279400 C 59702.82 279400 0 216854.2 0 139700 Z "/>
<path transform="matrix(.00007874016,0,0,.00007874016,184,93)" stroke-width="25400" stroke-linecap="butt" stroke-miterlimit="8" stroke-linejoin="miter" fill="none" stroke="#000000" d="M 0 139700 C 0 62545.82 62545.82 0 139700 0 C 216854.2 0 279400 62545.82 279400 139700 C 279400 216854.2 216854.2 279400 139700 279400 C 62545.82 279400 0 216854.2 0 139700 Z "/>
<path transform="matrix(.00007874016,0,0,.00007874016,61,185)" stroke-width="25400" stroke-linecap="butt" stroke-miterlimit="8" stroke-linejoin="miter" fill="none" stroke="#000000" d="M 0 139700 C 0 62545.82 59702.82 0 133350 0 C 206997.2 0 266700 62545.82 266700 139700 C 266700 216854.2 206997.2 279400 133350 279400 C 59702.82 279400 0 216854.2 0 139700 Z "/>
<path transform="matrix(.00007874016,0,0,.00007874016,123,185)" stroke-width="25400" stroke-linecap="butt" stroke-miterlimit="8" stroke-linejoin="miter" fill="none" stroke="#000000" d="M 0 139700 C 0 62545.82 59702.82 0 133350 0 C 206997.2 0 266700 62545.82 266700 139700 C 266700 216854.2 206997.2 279400 133350 279400 C 59702.82 279400 0 216854.2 0 139700 Z "/>
<path transform="matrix(.00007874016,0,0,.00007874016,184,185)" stroke-width="25400" stroke-linecap="butt" stroke-miterlimit="8" stroke-linejoin="miter" fill="none" stroke="#000000" d="M 0 139700 C 0 62545.82 62545.82 0 139700 0 C 216854.2 0 279400 62545.82 279400 139700 C 279400 216854.2 216854.2 279400 139700 279400 C 62545.82 279400 0 216854.2 0 139700 Z "/>
<path transform="matrix(.00007874016,0,0,.00007874016,659.5,23.5)" stroke-width="38100" stroke-linecap="butt" stroke-miterlimit="8" stroke-linejoin="miter" fill="none" stroke="#c5deb5" d="M 0 0 L 1 889999 "/>
<path transform="matrix(.00007874016,0,0,.00007874016,659.5,23.5)" stroke-width="38100" stroke-linecap="butt" stroke-miterlimit="8" stroke-linejoin="miter" fill="none" stroke="#c5deb5" d="M 0 0 L 786122 889999 "/>
<path transform="matrix(.00007874016,0,0,.00007874016,721.5,23.5)" stroke-width="38100" stroke-linecap="butt" stroke-miterlimit="8" stroke-linejoin="miter" fill="none" stroke="#c5deb5" d="M 0 0 L 786122 889999 "/>
<path transform="matrix(.00007874016,0,0,-.00007874016,721.5,93.578708)" stroke-width="38100" stroke-linecap="butt" stroke-miterlimit="8" stroke-linejoin="miter" fill="none" stroke="#c5deb5" d="M 0 0 L 786122 889999 "/>
<path transform="matrix(.00007874016,0,0,.00007874016,783.5,23.5)" stroke-width="38100" stroke-linecap="butt" stroke-miterlimit="8" stroke-linejoin="miter" fill="none" stroke="#c5deb5" d="M 0 0 L 1 889999 "/>
<path transform="matrix(.00007874016,0,0,.00007874016,659.5,115.5)" stroke-width="38100" stroke-linecap="butt" stroke-miterlimit="8" stroke-linejoin="miter" fill="none" stroke="#c5deb5" d="M 0 0 L 1572242 889999 "/>
<path transform="matrix(.00007874016,0,0,.00007874016,721.5,115.5)" stroke-width="38100" stroke-linecap="butt" stroke-miterlimit="8" stroke-linejoin="miter" fill="none" stroke="#c5deb5" d="M 0 0 L 1 889999 "/>
<path transform="matrix(.00007874016,0,0,-.00007874016,721.5,185.57866)" stroke-width="38100" stroke-linecap="butt" stroke-miterlimit="8" stroke-linejoin="miter" fill="none" stroke="#c5deb5" d="M 0 0 L 786122 889999 "/>
<path transform="matrix(-.00007874016,-0,0,.00007874016,721.3994,115.5)" stroke-width="38100" stroke-linecap="butt" stroke-miterlimit="8" stroke-linejoin="miter" fill="none" stroke="#c5deb5" d="M 0 0 L 786122 889998 "/>
<path transform="matrix(.00007874016,0,0,.00007874016,648,1)" stroke-width="25400" stroke-linecap="butt" stroke-miterlimit="8" stroke-linejoin="miter" fill="none" stroke="#000000" d="M 0 139700 C 0 62545.82 62545.82 0 139700 0 C 216854.2 0 279400 62545.82 279400 139700 C 279400 216854.2 216854.2 279400 139700 279400 C 62545.82 279400 0 216854.2 0 139700 Z "/>
<path transform="matrix(.00007874016,0,0,.00007874016,710,1)" stroke-width="25400" stroke-linecap="butt" stroke-miterlimit="8" stroke-linejoin="miter" fill="none" stroke="#000000" d="M 0 139700 C 0 62545.82 62545.82 0 139700 0 C 216854.2 0 279400 62545.82 279400 139700 C 279400 216854.2 216854.2 279400 139700 279400 C 62545.82 279400 0 216854.2 0 139700 Z "/>
<path transform="matrix(.00007874016,0,0,.00007874016,772,1)" stroke-width="25400" stroke-linecap="butt" stroke-miterlimit="8" stroke-linejoin="miter" fill="none" stroke="#000000" d="M 0 139700 C 0 62545.82 62545.82 0 139700 0 C 216854.2 0 279400 62545.82 279400 139700 C 279400 216854.2 216854.2 279400 139700 279400 C 62545.82 279400 0 216854.2 0 139700 Z "/>
<path transform="matrix(.00007874016,0,0,.00007874016,648,93)" stroke-width="25400" stroke-linecap="butt" stroke-miterlimit="8" stroke-linejoin="miter" fill="none" stroke="#000000" d="M 0 139700 C 0 62545.82 62545.82 0 139700 0 C 216854.2 0 279400 62545.82 279400 139700 C 279400 216854.2 216854.2 279400 139700 279400 C 62545.82 279400 0 216854.2 0 139700 Z "/>
<path transform="matrix(.00007874016,0,0,.00007874016,710,93)" stroke-width="25400" stroke-linecap="butt" stroke-miterlimit="8" stroke-linejoin="miter" fill="none" stroke="#000000" d="M 0 139700 C 0 62545.82 62545.82 0 139700 0 C 216854.2 0 279400 62545.82 279400 139700 C 279400 216854.2 216854.2 279400 139700 279400 C 62545.82 279400 0 216854.2 0 139700 Z "/>
<path transform="matrix(.00007874016,0,0,.00007874016,772,93)" stroke-width="25400" stroke-linecap="butt" stroke-miterlimit="8" stroke-linejoin="miter" fill="none" stroke="#000000" d="M 0 139700 C 0 62545.82 62545.82 0 139700 0 C 216854.2 0 279400 62545.82 279400 139700 C 279400 216854.2 216854.2 279400 139700 279400 C 62545.82 279400 0 216854.2 0 139700 Z "/>
<path transform="matrix(.00007874016,0,0,.00007874016,648,185)" stroke-width="25400" stroke-linecap="butt" stroke-miterlimit="8" stroke-linejoin="miter" fill="none" stroke="#000000" d="M 0 139700 C 0 62545.82 62545.82 0 139700 0 C 216854.2 0 279400 62545.82 279400 139700 C 279400 216854.2 216854.2 279400 139700 279400 C 62545.82 279400 0 216854.2 0 139700 Z "/>
<path transform="matrix(.00007874016,0,0,.00007874016,710,185)" stroke-width="25400" stroke-linecap="butt" stroke-miterlimit="8" stroke-linejoin="miter" fill="none" stroke="#000000" d="M 0 139700 C 0 62545.82 62545.82 0 139700 0 C 216854.2 0 279400 62545.82 279400 139700 C 279400 216854.2 216854.2 279400 139700 279400 C 62545.82 279400 0 216854.2 0 139700 Z "/>
<path transform="matrix(.00007874016,0,0,.00007874016,772,185)" stroke-width="25400" stroke-linecap="butt" stroke-miterlimit="8" stroke-linejoin="miter" fill="none" stroke="#000000" d="M 0 139700 C 0 62545.82 62545.82 0 139700 0 C 216854.2 0 279400 62545.82 279400 139700 C 279400 216854.2 216854.2 279400 139700 279400 C 62545.82 279400 0 216854.2 0 139700 Z "/>
<path transform="matrix(.00007874016,0,0,.00007874016,783.5,115.5)" stroke-width="38100" stroke-linecap="butt" stroke-miterlimit="8" stroke-linejoin="miter" fill="none" stroke="#c55a11" d="M 0 0 L 1 889998 "/>
<path transform="matrix(.00007874016,0,0,.00007874016,659.5,23.5)" stroke-width="38100" stroke-linecap="butt" stroke-miterlimit="8" stroke-linejoin="miter" fill="none" stroke="#c55a11" d="M 0 0 L 1572242 889998 "/>
<path transform="matrix(.00007874016,0,0,.00007874016,721.5,23.5)" stroke-width="38100" stroke-linecap="butt" stroke-miterlimit="8" stroke-linejoin="miter" fill="none" stroke="#c55a11" d="M 0 0 L 1 889998 "/>
<path transform="matrix(.00007874016,0,0,.00007874016,721.5,115.5)" stroke-width="38100" stroke-linecap="butt" stroke-miterlimit="8" stroke-linejoin="miter" fill="none" stroke="#c55a11" d="M 0 0 L 786122 889998 "/>
<path transform="matrix(1,0,0,-1,0,262)" d="M 221 157.75 L 330.5777 157.7499 L 330.5777 154.2499 L 221 154.25 Z M 328.8277 161.2499 L 339.3277 155.9999 L 328.8277 150.7499 Z "/>
<path transform="matrix(1,0,0,-1,0,262)" d="M 515 157.75 L 624.5777 157.7499 L 624.5777 154.2499 L 515 154.25 Z M 622.8277 161.2499 L 633.3277 155.9999 L 622.8277 150.7499 Z "/>
<path transform="matrix(.00007874016,0,0,.00007874016,978.5,23.5)" stroke-width="38100" stroke-linecap="butt" stroke-miterlimit="8" stroke-linejoin="miter" fill="none" stroke="#c5deb5" d="M 0 0 L 1 889999 "/>
<path transform="matrix(.00007874016,0,0,.00007874016,978.5,23.5)" stroke-width="38100" stroke-linecap="butt" stroke-miterlimit="8" stroke-linejoin="miter" fill="none" stroke="#c5deb5" d="M 0 0 L 786122 889999 "/>
<path transform="matrix(.00007874016,0,0,.00007874016,1040.5,23.5)" stroke-width="38100" stroke-linecap="butt" stroke-miterlimit="8" stroke-linejoin="miter" fill="none" stroke="#c5deb5" d="M 0 0 L 786122 889999 "/>
<path transform="matrix(.00007874016,0,0,-.00007874016,1040.5,93.578708)" stroke-width="38100" stroke-linecap="butt" stroke-miterlimit="8" stroke-linejoin="miter" fill="none" stroke="#c5deb5" d="M 0 0 L 786122 889999 "/>
<path transform="matrix(.00007874016,0,0,.00007874016,1102.5,23.5)" stroke-width="38100" stroke-linecap="butt" stroke-miterlimit="8" stroke-linejoin="miter" fill="none" stroke="#c5deb5" d="M 0 0 L 1 889999 "/>
<path transform="matrix(.00007874016,0,0,.00007874016,978.5,115.5)" stroke-width="38100" stroke-linecap="butt" stroke-miterlimit="8" stroke-linejoin="miter" fill="none" stroke="#c5deb5" d="M 0 0 L 1572242 889999 "/>
<path transform="matrix(.00007874016,0,0,.00007874016,1040.5,115.5)" stroke-width="38100" stroke-linecap="butt" stroke-miterlimit="8" stroke-linejoin="miter" fill="none" stroke="#c5deb5" d="M 0 0 L 1 889999 "/>
<path transform="matrix(.00007874016,0,0,-.00007874016,1040.5,185.57866)" stroke-width="38100" stroke-linecap="butt" stroke-miterlimit="8" stroke-linejoin="miter" fill="none" stroke="#c5deb5" d="M 0 0 L 786122 889999 "/>
<path transform="matrix(-.00007874016,-0,0,.00007874016,1040.399,115.5)" stroke-width="38100" stroke-linecap="butt" stroke-miterlimit="8" stroke-linejoin="miter" fill="none" stroke="#c5deb5" d="M 0 0 L 786122 889998 "/>
<path transform="matrix(.00007874016,0,0,.00007874016,967,1)" stroke-width="25400" stroke-linecap="butt" stroke-miterlimit="8" stroke-linejoin="miter" fill="none" stroke="#000000" d="M 0 139700 C 0 62545.82 62545.82 0 139700 0 C 216854.2 0 279400 62545.82 279400 139700 C 279400 216854.2 216854.2 279400 139700 279400 C 62545.82 279400 0 216854.2 0 139700 Z "/>
<path transform="matrix(.00007874016,0,0,.00007874016,1029,1)" stroke-width="25400" stroke-linecap="butt" stroke-miterlimit="8" stroke-linejoin="miter" fill="none" stroke="#000000" d="M 0 139700 C 0 62545.82 59702.82 0 133350 0 C 206997.2 0 266700 62545.82 266700 139700 C 266700 216854.2 206997.2 279400 133350 279400 C 59702.82 279400 0 216854.2 0 139700 Z "/>
<path transform="matrix(.00007874016,0,0,.00007874016,1091,1)" stroke-width="25400" stroke-linecap="butt" stroke-miterlimit="8" stroke-linejoin="miter" fill="none" stroke="#000000" d="M 0 139700 C 0 62545.82 59702.82 0 133350 0 C 206997.2 0 266700 62545.82 266700 139700 C 266700 216854.2 206997.2 279400 133350 279400 C 59702.82 279400 0 216854.2 0 139700 Z "/>
<path transform="matrix(.00007874016,0,0,.00007874016,967,93)" stroke-width="25400" stroke-linecap="butt" stroke-miterlimit="8" stroke-linejoin="miter" fill="none" stroke="#000000" d="M 0 139700 C 0 62545.82 62545.82 0 139700 0 C 216854.2 0 279400 62545.82 279400 139700 C 279400 216854.2 216854.2 279400 139700 279400 C 62545.82 279400 0 216854.2 0 139700 Z "/>
<path transform="matrix(.00007874016,0,0,.00007874016,1029,93)" stroke-width="25400" stroke-linecap="butt" stroke-miterlimit="8" stroke-linejoin="miter" fill="none" stroke="#000000" d="M 0 139700 C 0 62545.82 59702.82 0 133350 0 C 206997.2 0 266700 62545.82 266700 139700 C 266700 216854.2 206997.2 279400 133350 279400 C 59702.82 279400 0 216854.2 0 139700 Z "/>
<path transform="matrix(.00007874016,0,0,.00007874016,1091,93)" stroke-width="25400" stroke-linecap="butt" stroke-miterlimit="8" stroke-linejoin="miter" fill="none" stroke="#000000" d="M 0 139700 C 0 62545.82 59702.82 0 133350 0 C 206997.2 0 266700 62545.82 266700 139700 C 266700 216854.2 206997.2 279400 133350 279400 C 59702.82 279400 0 216854.2 0 139700 Z "/>
<path transform="matrix(.00007874016,0,0,.00007874016,967,185)" stroke-width="25400" stroke-linecap="butt" stroke-miterlimit="8" stroke-linejoin="miter" fill="none" stroke="#000000" d="M 0 139700 C 0 62545.82 62545.82 0 139700 0 C 216854.2 0 279400 62545.82 279400 139700 C 279400 216854.2 216854.2 279400 139700 279400 C 62545.82 279400 0 216854.2 0 139700 Z "/>
<path transform="matrix(.00007874016,0,0,.00007874016,1029,185)" stroke-width="25400" stroke-linecap="butt" stroke-miterlimit="8" stroke-linejoin="miter" fill="none" stroke="#000000" d="M 0 139700 C 0 62545.82 59702.82 0 133350 0 C 206997.2 0 266700 62545.82 266700 139700 C 266700 216854.2 206997.2 279400 133350 279400 C 59702.82 279400 0 216854.2 0 139700 Z "/>
<path transform="matrix(.00007874016,0,0,.00007874016,1091,185)" stroke-width="25400" stroke-linecap="butt" stroke-miterlimit="8" stroke-linejoin="miter" fill="none" stroke="#000000" d="M 0 139700 C 0 62545.82 59702.82 0 133350 0 C 206997.2 0 266700 62545.82 266700 139700 C 266700 216854.2 206997.2 279400 133350 279400 C 59702.82 279400 0 216854.2 0 139700 Z "/>
<path transform="matrix(.00007874016,0,0,.00007874016,1102.5,115.5)" stroke-width="38100" stroke-linecap="butt" stroke-miterlimit="8" stroke-linejoin="miter" fill="none" stroke="#c55a11" d="M 0 0 L 1 889998 "/>
<path transform="matrix(.00007874016,0,0,.00007874016,978.5,23.5)" stroke-width="38100" stroke-linecap="butt" stroke-miterlimit="8" stroke-linejoin="miter" fill="none" stroke="#c55a11" d="M 0 0 L 1572242 889998 "/>
<path transform="matrix(.00007874016,0,0,.00007874016,1040.5,23.5)" stroke-width="38100" stroke-linecap="butt" stroke-miterlimit="8" stroke-linejoin="miter" fill="none" stroke="#c55a11" d="M 0 0 L 1 889998 "/>
<path transform="matrix(.00007874016,0,0,.00007874016,1040.5,115.5)" stroke-width="38100" stroke-linecap="butt" stroke-miterlimit="8" stroke-linejoin="miter" fill="none" stroke="#c55a11" d="M 0 0 L 786122 889998 "/>
<path transform="matrix(.00007874016,0,0,.00007874016,978.5,115.5)" stroke-width="38100" stroke-linecap="butt" stroke-miterlimit="8" stroke-linejoin="miter" fill="none" stroke="#40719c" d="M 0 0 L 1 889999 "/>
<path transform="matrix(-.00007874016,-0,0,.00007874016,1040.399,23.5)" stroke-width="38100" stroke-linecap="butt" stroke-miterlimit="8" stroke-linejoin="miter" fill="none" stroke="#40719c" d="M 0 0 L 786122 889998 "/>
<path transform="matrix(.00007874016,0,0,.00007874016,978.5,115.5)" stroke-width="38100" stroke-linecap="butt" stroke-miterlimit="8" stroke-linejoin="miter" fill="none" stroke="#ff40ff" d="M 0 0 L 786122 889999 "/>
<path transform="matrix(-.00007874016,-0,0,.00007874016,1102.299,23.5)" stroke-width="38100" stroke-linecap="butt" stroke-miterlimit="8" stroke-linejoin="miter" fill="none" stroke="#ff40ff" d="M 0 0 L 1572242 889998 "/>
<path transform="matrix(1,0,0,-1,0,262)" d="M 915 157.75 L 946.3052 157.7499 L 946.3052 154.2499 L 915 154.25 Z M 944.5552 161.2499 L 955.0552 155.9999 L 944.5552 150.7499 Z "/>
<path transform="matrix(1,0,0,-1,0,262)" d="M 856.5 155.5 C 856.5 157.7091 858.5147 159.5 861 159.5 C 863.4853 159.5 865.5 157.7091 865.5 155.5 C 865.5 153.2909 863.4853 151.5 861 151.5 C 858.5147 151.5 856.5 153.2909 856.5 155.5 Z "/>
<path transform="matrix(.00007874016,0,0,.00007874016,856.5,102.5)" stroke-width="12700" stroke-linecap="butt" stroke-miterlimit="8" stroke-linejoin="miter" fill="none" stroke="#000000" d="M 0 50800 C 0 22743.93 25586.93 0 57150 0 C 88713.07 0 114300 22743.93 114300 50800 C 114300 78856.06 88713.07 101600 57150 101600 C 25586.93 101600 0 78856.06 0 50800 Z "/>
<path transform="matrix(1,0,0,-1,0,262)" d="M 876.5 155.5 C 876.5 157.7091 878.2909 159.5 880.5 159.5 C 882.7091 159.5 884.5 157.7091 884.5 155.5 C 884.5 153.2909 882.7091 151.5 880.5 151.5 C 878.2909 151.5 876.5 153.2909 876.5 155.5 Z "/>
<path transform="matrix(.00007874016,0,0,.00007874016,876.5,102.5)" stroke-width="12700" stroke-linecap="butt" stroke-miterlimit="8" stroke-linejoin="miter" fill="none" stroke="#000000" d="M 0 50800 C 0 22743.93 22743.93 0 50800 0 C 78856.06 0 101600 22743.93 101600 50800 C 101600 78856.06 78856.06 101600 50800 101600 C 22743.93 101600 0 78856.06 0 50800 Z "/>
<path transform="matrix(1,0,0,-1,0,262)" d="M 896.5 155.5 C 896.5 157.7091 898.2909 159.5 900.5 159.5 C 902.7091 159.5 904.5 157.7091 904.5 155.5 C 904.5 153.2909 902.7091 151.5 900.5 151.5 C 898.2909 151.5 896.5 153.2909 896.5 155.5 Z "/>
<path transform="matrix(.00007874016,0,0,.00007874016,896.5,102.5)" stroke-width="12700" stroke-linecap="butt" stroke-miterlimit="8" stroke-linejoin="miter" fill="none" stroke="#000000" d="M 0 50800 C 0 22743.93 22743.93 0 50800 0 C 78856.06 0 101600 22743.93 101600 50800 C 101600 78856.06 78856.06 101600 50800 101600 C 22743.93 101600 0 78856.06 0 50800 Z "/>
<path transform="matrix(1,0,0,-1,0,262)" d="M 807 157.75 L 838.3052 157.7499 L 838.3052 154.2499 L 807 154.25 Z M 836.5552 161.2499 L 847.0552 155.9999 L 836.5552 150.7499 Z "/>
<text xml:space="preserve" transform="matrix(1 0 -0 1 250.5224 329)" font-size="16" font-family="TimesNewRomanPS" font-weight="bold"><tspan y="-262" x="0 12.000001 19.000002 24.000004 36.000009 44.000009 51.000009">Network</tspan></text>
<text xml:space="preserve" transform="matrix(1 0 -0 1 252.5224 349)" font-size="16" font-family="TimesNewRomanPS" font-weight="bold"><tspan y="-262" x="0 10 16.992 25.984002 34.976007 38.976007 47.96801">Pruning</tspan></text>
<text xml:space="preserve" transform="matrix(1 0 -0 1 541.1395 309)" font-size="16" font-family="TimesNewRomanPS" font-weight="bold"><tspan y="-262" x="0 12.000001 19.000002 28.000004 35.000005 42.000005 50.000005 55.000005 62.000005">Generate </tspan></text>
<text xml:space="preserve" transform="matrix(1 0 -0 1 525.1395 329)" font-size="16" font-family="TimesNewRomanPS" font-weight="bold"><tspan y="-262" x="0 8 17 26 30 40 44 53">and Fine</tspan></text>
<text xml:space="preserve" transform="matrix(1 0 -0 1 585.1395 329)" font-size="16" font-family="TimesNewRomanPS" font-weight="bold"><tspan y="-262" x="0">-</tspan></text>
<text xml:space="preserve" transform="matrix(1 0 -0 1 590.1395 329)" font-size="16" font-family="TimesNewRomanPS" font-weight="bold"><tspan y="-262" x="0 5 14.000001 23">tune</tspan></text>
<text xml:space="preserve" transform="matrix(1 0 -0 1 521.1395 348)" font-size="16" font-family="TimesNewRomanPS" font-weight="bold"><tspan y="-262" x="0 11.000001 19 24 29 36 43 51 55 64 73 82 91 98.00001">Lottery Subnet</tspan></text>
<text xml:space="preserve" transform="matrix(1 0 -0 1 843.7927 327)" font-size="16" font-family="TimesNewRomanPS" font-weight="bold"><tspan y="-262" x="0 12.000001 21.000002 29.000002 38.000005 43.000005 47.000005 56.000005 64 68 73">Adapting to</tspan></text>
<text xml:space="preserve" transform="matrix(1 0 -0 1 833.7927 347)" font-size="16" font-family="TimesNewRomanPS" font-weight="bold"><tspan y="-262" x="0 15.000001 23 30 37 41 53.000005 61.000005 74 82 86 95">More Domains</tspan></text>
<text xml:space="preserve" transform="matrix(1 0 -0 1 74.79488 508)" font-size="18" font-family="TimesNewRomanPS" font-weight="bold"><tspan y="-262" x="0 14.000401 21.999602 32.000406 39.999605 47.998804 56.998804">General</tspan></text>
<text xml:space="preserve" transform="matrix(1 0 -0 1 141.7949 508)" font-size="18" font-family="TimesNewRomanPS" font-weight="bold"><tspan y="-262" x="0 16.9992 25.9992 36.000005 43.999204">Model</tspan></text>
<text xml:space="preserve" transform="matrix(1 0 -0 1 291.85 508)" font-size="18" font-family="TimesNewRomanPS" font-weight="bold"><tspan y="-262" x="0 7.0002005 17.001002 23.0004 32.0004 39.9996 54.999 63.999 69.998409 74.9988 83.9988 91.998 97.9974 111.997798 119.996997 129.99779 137.997 145.9962 154.9962 159.9966 164.997 174.99779 184.99858">Informative General Sub</tspan></text>
<text xml:space="preserve" transform="matrix(1 0 -0 1 486.85 508)" font-size="18" font-family="TimesNewRomanPS" font-weight="bold"><tspan y="-262" x="0">-</tspan></text>
<text xml:space="preserve" transform="matrix(1 0 -0 1 492.85 508)" font-size="18" font-family="TimesNewRomanPS" font-weight="bold"><tspan y="-262" x="0 10.000801 18.000002 23.999402 36.999006 45.999006 53.998205">network</tspan></text>
<text xml:space="preserve" transform="matrix(1 0 -0 1 606.0825 508)" font-size="18" font-family="TimesNewRomanPS" font-weight="bold"><tspan y="-262" x="0 12.000601 21.0006 27 32.9994 40.9986 48.9978">Lottery</tspan></text>
<text xml:space="preserve" transform="matrix(1 0 -0 1 669.0825 508)" font-size="18" font-family="TimesNewRomanPS" font-weight="bold"><tspan y="-262" x="0 12.999601 21.999602 36.999006 45.999006 50.999406">Domain</tspan></text>
<text xml:space="preserve" transform="matrix(1 0 -0 1 736.0825 508)" font-size="18" font-family="TimesNewRomanPS" font-weight="bold"><tspan y="-262" x="0 10.000801 20.001603">Sub</tspan></text>
<text xml:space="preserve" transform="matrix(1 0 -0 1 766.0825 508)" font-size="18" font-family="TimesNewRomanPS" font-weight="bold"><tspan y="-262" x="0">-</tspan></text>
<text xml:space="preserve" transform="matrix(1 0 -0 1 772.0825 508)" font-size="18" font-family="TimesNewRomanPS" font-weight="bold"><tspan y="-262" x="0 10.000801 18.000002 23.999402 36.999006 45.999006 53.998205">network</tspan></text>
<text xml:space="preserve" transform="matrix(1 0 -0 1 920.8695 508)" font-size="18" font-family="TimesNewRomanPS" font-weight="bold"><tspan y="-262" x="0 16.9992 26.996403 31.989603 37.990804 42.984 52.9812 57.9744">Multiple</tspan></text>
<text xml:space="preserve" transform="matrix(1 0 -0 1 991.8695 508)" font-size="18" font-family="TimesNewRomanPS" font-weight="bold"><tspan y="-262" x="0 12.999601 21.999602 36.999006 45.999006 50.999406">Domain</tspan></text>
<text xml:space="preserve" transform="matrix(1 0 -0 1 1057.87 508)" font-size="18" font-family="TimesNewRomanPS" font-weight="bold"><tspan y="-262" x="0 10.000801 20.001603">Sub</tspan></text>
<text xml:space="preserve" transform="matrix(1 0 -0 1 1087.87 508)" font-size="18" font-family="TimesNewRomanPS" font-weight="bold"><tspan y="-262" x="0">-</tspan></text>
<text xml:space="preserve" transform="matrix(1 0 -0 1 1093.87 508)" font-size="18" font-family="TimesNewRomanPS" font-weight="bold"><tspan y="-262" x="0 10.000801 18.000002 23.999402 36.999006 45.999006 53.998205">network</tspan></text>
</g>
</svg>
