<?xml version="1.0" encoding="UTF-8" standalone="no"?>
<!DOCTYPE svg PUBLIC "-//W3C//DTD SVG 1.1//EN" "http://www.w3.org/Graphics/SVG/1.1/DTD/svg11.dtd">
<svg xmlns="http://www.w3.org/2000/svg" xmlns:xlink="http://www.w3.org/1999/xlink" version="1.1" width="1193pt" height="595pt" viewBox="0 0 1193 595">
<g enable-background="new">
<clipPath id="cp0">
<path transform="matrix(1,0,0,-1,0,595)" d="M 0 0 L 1193 0 L 1193 595 L 0 595 Z "/>
</clipPath>
<g clip-path="url(#cp0)">
<path transform="matrix(1,0,0,1,-1,-167)" stroke-width="2" stroke-linecap="round" stroke-linejoin="round" fill="none" stroke="#000000" d="M 581.0441 500 L 493 500 C 481.9543 500 473 491.0457 473 480 L 473 188 C 473 176.9543 481.9543 168 493 168 L 581.0441 168 C 592.0898 168 601.0441 176.9543 601.0441 188 L 601.0441 480 C 601.0441 491.0457 592.0898 500 581.0441 500 Z M 581.0441 500 "/>
<path transform="matrix(1,0,0,1,-1,-167)" stroke-width="2" stroke-linecap="round" stroke-linejoin="round" fill="none" stroke="#000000" d="M 443 500 L 24.85858 500 C 13.81288 500 4.858579 491.0457 4.858579 480 L 4.858579 188 C 4.858579 176.9543 13.81288 168 24.85858 168 L 443 168 C 454.0457 168 463 176.9543 463 188 L 463 480 C 463 491.0457 454.0457 500 443 500 Z M 443 500 "/>
<text xml:space="preserve" transform="matrix(1 0 0 1 -1 -167)" font-size="25" font-family="HelveticaNeue" font-weight="bold"><tspan y="204.065" x="23.4223 39.6223 53.0473 59.4973 72.9223 81.722309 88.1723 102.99731 118.27231">Existing </tspan></text>
<text xml:space="preserve" transform="matrix(1 0 0 1 -1 -167)" font-size="25" font-family="HelveticaNeue" font-weight="bold"><tspan y="233.7902" x="10.2098 22.709799 37.0598 50.4848 65.759799 80.5848 95.8598 118.5098">Taxonomy</tspan></text>
<text xml:space="preserve" transform="matrix(1 0 0 1 -1 -167)" font-size="25" font-family="HelveticaNeue" font-weight="bold"><tspan y="201.6221" x="510.4095 528.9345 543.2845">New</tspan></text>
<text xml:space="preserve" transform="matrix(1 0 0 1 -1 -167)" font-size="25" font-family="HelveticaNeue" font-weight="bold"><tspan y="231.3473" x="479.6095 498.1345 513.4095 528.2345 542.5845 556.93447 572.2095 581.00949">Concepts</tspan></text>
<path transform="matrix(1,0,0,-1,0,595)" d="M 507.4361 342.8638 L 557.219 342.8638 C 563.1076 342.8638 567.8868 329.5721 567.8868 313.1947 C 567.8868 296.8174 563.1076 283.5256 557.219 283.5256 L 507.4361 283.5256 C 501.5475 283.5256 496.7683 296.8174 496.7683 313.1947 C 496.7683 329.5721 501.5475 342.8638 507.4361 342.8638 Z M 507.4361 342.8638 " fill="#00c9cc" fill-opacity=".2"/>
<path transform="matrix(1,0,0,1,-1,-167)" stroke-width="1.5" stroke-linecap="round" stroke-linejoin="round" fill="none" stroke="#000000" d="M 508.4361 419.1362 L 558.219 419.1362 C 564.1076 419.1362 568.8868 432.4279 568.8868 448.8053 C 568.8868 465.1826 564.1076 478.4744 558.219 478.4744 L 508.4361 478.4744 C 502.5475 478.4744 497.7683 465.1826 497.7683 448.8053 C 497.7683 432.4279 502.5475 419.1362 508.4361 419.1362 Z M 508.4361 419.1362 "/>
<text xml:space="preserve" transform="matrix(1 0 0 1 -1 -167)" font-size="21" font-family="HelveticaNeue" font-style="italic"><tspan y="456.5113" x="512.3276 525.93557 539.5435">SSD</tspan></text>
<path transform="matrix(1,0,0,-1,0,595)" d="M 292.0323 416.1967 L 362.1833 416.1967 C 370.4811 416.1967 377.2156 402.905 377.2156 386.5276 C 377.2156 370.1503 370.4811 356.8585 362.1833 356.8585 L 292.0323 356.8585 C 283.7345 356.8585 277 370.1503 277 386.5276 C 277 402.905 283.7345 416.1967 292.0323 416.1967 Z M 292.0323 416.1967 " fill="#fda25f" fill-opacity=".5049"/>
<path transform="matrix(1,0,0,1,-1,-167)" stroke-width="1.5" stroke-linecap="round" stroke-linejoin="round" fill="none" stroke="#000000" d="M 293.0323 345.8033 L 363.1833 345.8033 C 371.4811 345.8033 378.2156 359.095 378.2156 375.4724 C 378.2156 391.8497 371.4811 405.1415 363.1833 405.1415 L 293.0323 405.1415 C 284.7345 405.1415 278 391.8497 278 375.4724 C 278 359.095 284.7345 345.8033 293.0323 345.8033 Z M 293.0323 345.8033 "/>
<text xml:space="preserve" transform="matrix(1 0 0 1 -1 -167)" font-size="21" font-family="HelveticaNeue" font-style="italic"><tspan y="383.1784" x="289.8143 308.0843 319.3613 337.2533 349.30729 356.3003">Memory</tspan></text>
<path transform="matrix(1,0,0,-1,0,595)" d="M 395.1764 416.1967 L 437.0393 416.1967 C 441.991 416.1967 446.0099 402.905 446.0099 386.5276 C 446.0099 370.1503 441.991 356.8585 437.0393 356.8585 L 395.1764 356.8585 C 390.2246 356.8585 386.2057 370.1503 386.2057 386.5276 C 386.2057 402.905 390.2246 416.1967 395.1764 416.1967 Z M 395.1764 416.1967 " fill="#fda25f" fill-opacity=".5049"/>
<path transform="matrix(1,0,0,1,-1,-167)" stroke-width="1.5" stroke-linecap="round" stroke-linejoin="round" fill="none" stroke="#000000" d="M 396.1764 345.8033 L 438.0393 345.8033 C 442.991 345.8033 447.0099 359.095 447.0099 375.4724 C 447.0099 391.8497 442.991 405.1415 438.0393 405.1415 L 396.1764 405.1415 C 391.2246 405.1415 387.2057 391.8497 387.2057 375.4724 C 387.2057 359.095 391.2246 345.8033 396.1764 345.8033 Z M 396.1764 345.8033 "/>
<text xml:space="preserve" transform="matrix(1 0 0 1 -1 -167)" font-size="21" font-family="HelveticaNeue" font-style="italic"><tspan y="383.1784" x="395.1418 410.3038 423.9118">CPU</tspan></text>
<path transform="matrix(1,0,0,-1,0,595)" d="M 30.20449 416.1967 L 111.4319 416.1967 C 121.0399 416.1967 128.8378 402.905 128.8378 386.5276 C 128.8378 370.1503 121.0399 356.8585 111.4319 356.8585 L 30.20449 356.8585 C 20.59645 356.8585 12.79862 370.1503 12.79862 386.5276 C 12.79862 402.905 20.59645 416.1967 30.20449 416.1967 Z M 30.20449 416.1967 " fill="#fda25f" fill-opacity=".5049"/>
<path transform="matrix(1,0,0,1,-1,-167)" stroke-width="1.5" stroke-linecap="round" stroke-linejoin="round" fill="none" stroke="#000000" d="M 31.20449 345.8033 L 112.4319 345.8033 C 122.0399 345.8033 129.8378 359.095 129.8378 375.4724 C 129.8378 391.8497 122.0399 405.1415 112.4319 405.1415 L 31.20449 405.1415 C 21.59645 405.1415 13.79862 391.8497 13.79862 375.4724 C 13.79862 359.095 21.59645 345.8033 31.20449 345.8033 Z M 31.20449 345.8033 "/>
<text xml:space="preserve" transform="matrix(1 0 0 1 -1 -167)" font-size="21" font-family="HelveticaNeue" font-style="italic"><tspan y="383.1784" x="26.88869 40.89569 52.17269 62.273694 74.72669 86.78069 97.679698 104.2947">Keyboard</tspan></text>
<path transform="matrix(1,0,0,-1,0,595)" d="M 503.064 505.3751 L 561.5912 505.3751 C 568.5141 505.3751 574.1327 492.0833 574.1327 475.706 C 574.1327 459.3287 568.5141 446.0369 561.5912 446.0369 L 503.064 446.0369 C 496.141 446.0369 490.5224 459.3287 490.5224 475.706 C 490.5224 492.0833 496.141 505.3751 503.064 505.3751 Z M 503.064 505.3751 " fill="#00c9cc" fill-opacity=".2"/>
<path transform="matrix(1,0,0,1,-1,-167)" stroke-width="1.5" stroke-linecap="round" stroke-linejoin="round" fill="none" stroke="#000000" d="M 504.064 256.6249 L 562.5912 256.6249 C 569.5141 256.6249 575.1327 269.9167 575.1327 286.294 C 575.1327 302.6713 569.5141 315.9631 562.5912 315.9631 L 504.064 315.9631 C 497.141 315.9631 491.5224 302.6713 491.5224 286.294 C 491.5224 269.9167 497.141 256.6249 504.064 256.6249 Z M 504.064 256.6249 "/>
<text xml:space="preserve" transform="matrix(1 0 0 1 -1 -167)" font-size="21" font-family="HelveticaNeue" font-style="italic"><tspan y="281.706" x="505.3241 518.93209 536.8241 547.7231 554.71609">Smart</tspan></text>
<text xml:space="preserve" transform="matrix(1 0 0 1 -1 -167)" font-size="21" font-family="HelveticaNeue" font-style="italic"><tspan y="306.294" x="503.1821 516.7901 528.4661 540.52017 552.19619">Phone</tspan></text>
<path transform="matrix(1,0,0,-1,0,595)" d="M 186.7077 416.1967 L 253.6624 416.1967 C 261.5822 416.1967 268.0099 402.905 268.0099 386.5276 C 268.0099 370.1503 261.5822 356.8585 253.6624 356.8585 L 186.7077 356.8585 C 178.7879 356.8585 172.3602 370.1503 172.3602 386.5276 C 172.3602 402.905 178.7879 416.1967 186.7077 416.1967 Z M 186.7077 416.1967 " fill="#fda25f" fill-opacity=".5049"/>
<path transform="matrix(1,0,0,1,-1,-167)" stroke-width="1.5" stroke-linecap="round" stroke-linejoin="round" fill="none" stroke="#000000" d="M 187.7077 345.8033 L 254.6624 345.8033 C 262.5822 345.8033 269.0099 359.095 269.0099 375.4724 C 269.0099 391.8497 262.5822 405.1415 254.6624 405.1415 L 187.7077 405.1415 C 179.7879 405.1415 173.3602 391.8497 173.3602 375.4724 C 173.3602 359.095 179.7879 345.8033 187.7077 345.8033 Z M 187.7077 345.8033 "/>
<text xml:space="preserve" transform="matrix(1 0 0 1 -1 -167)" font-size="21" font-family="HelveticaNeue" font-style="italic"><tspan y="383.1784" x="201.3611 216.1451 220.8071 230.9081">Disk</tspan></text>
<path transform="matrix(1,0,0,1,-1,-167)" stroke-width="2" stroke-linecap="round" stroke-linejoin="round" fill="none" stroke="#000000" d="M 190.3046 210.6699 L 162.009 255.0836 "/>
<path transform="matrix(1,0,0,-1,0,595)" d="M 158.4299 502.8682 L 162.5271 505.9493 L 159.491 507.8836 Z M 158.4299 502.8682 "/>
<path transform="matrix(1,0,0,1,-1,-167)" stroke-width="2" stroke-linecap="butt" stroke-miterlimit="10" stroke-linejoin="miter" fill="none" stroke="#000000" d="M 159.4299 259.1318 L 163.5271 256.0507 L 160.491 254.1164 Z M 159.4299 259.1318 "/>
<path transform="matrix(1,0,0,1,-1,-167)" stroke-width="2" stroke-linecap="round" stroke-linejoin="round" fill="none" stroke="#000000" d="M 1172.691 501.8018 L 629.8586 501.8018 C 618.8129 501.8018 609.8586 492.8475 609.8586 481.8018 L 609.8586 188 C 609.8586 176.9543 618.8129 168 629.8586 168 L 1172.691 168 C 1183.737 168 1192.691 176.9543 1192.691 188 L 1192.691 481.8018 C 1192.691 492.8475 1183.737 501.8018 1172.691 501.8018 Z M 1172.691 501.8018 "/>
<path transform="matrix(1,0,0,-1,0,595)" d="M 702.5843 500.085 L 785.4929 500.085 C 795.2998 500.085 803.259 486.7932 803.259 470.4159 C 803.259 454.0386 795.2998 440.7468 785.4929 440.7468 L 702.5843 440.7468 C 692.7773 440.7468 684.8181 454.0386 684.8181 470.4159 C 684.8181 486.7932 692.7773 500.085 702.5843 500.085 Z M 702.5843 500.085 " fill="#93c7f7"/>
<path transform="matrix(1,0,0,1,-1,-167)" stroke-width="1.5" stroke-linecap="round" stroke-linejoin="round" fill="none" stroke="#000000" d="M 703.5843 261.915 L 786.4929 261.915 C 796.2998 261.915 804.259 275.2068 804.259 291.5841 C 804.259 307.9614 796.2998 321.2532 786.4929 321.2532 L 703.5843 321.2532 C 693.7773 321.2532 685.8181 307.9614 685.8181 291.5841 C 685.8181 275.2068 693.7773 261.915 703.5843 261.915 Z M 703.5843 261.915 "/>
<text xml:space="preserve" transform="matrix(1 0 0 1 -1 -167)" font-size="21" font-family="HelveticaNeue" font-style="italic"><tspan y="299.2901" x="706.3461 721.1301 732.4071 742.5081 752.60916 759.2241 771.27816">Desktop</tspan></text>
<path transform="matrix(1,0,0,-1,0,595)" d="M 929.7926 411.6869 L 1002.713 411.6869 C 1011.338 411.6869 1018.338 398.3952 1018.338 382.0178 C 1018.338 365.6405 1011.338 352.3487 1002.713 352.3487 L 929.7926 352.3487 C 921.1672 352.3487 914.1668 365.6405 914.1668 382.0178 C 914.1668 398.3952 921.1672 411.6869 929.7926 411.6869 Z M 929.7926 411.6869 " fill="#fda25f" fill-opacity=".5049"/>
<path transform="matrix(1,0,0,1,-1,-167)" stroke-width="1.5" stroke-linecap="round" stroke-linejoin="round" fill="none" stroke="#000000" d="M 930.7926 350.3131 L 1003.713 350.3131 C 1012.338 350.3131 1019.338 363.6048 1019.338 379.9822 C 1019.338 396.3595 1012.338 409.6513 1003.713 409.6513 L 930.7926 409.6513 C 922.1672 409.6513 915.1668 396.3595 915.1668 379.9822 C 915.1668 363.6048 922.1672 350.3131 930.7926 350.3131 Z M 930.7926 350.3131 "/>
<text xml:space="preserve" transform="matrix(1 0 0 1 -1 -167)" font-size="21" font-family="HelveticaNeue" font-style="italic"><tspan y="387.6882" x="928.9591 947.2291 958.5061 976.39816 988.45217 995.4451">Memory</tspan></text>
<path transform="matrix(1,0,0,1,-1,-167)" stroke-width="2" stroke-linecap="round" stroke-linejoin="round" fill="none" stroke="#000000" d="M 745.0386 321.2532 L 959.221 349.2628 "/>
<path transform="matrix(1,0,0,-1,0,595)" d="M 962.9805 412.1148 L 958.4544 414.5221 L 957.9876 410.9524 Z M 962.9805 412.1148 "/>
<path transform="matrix(1,0,0,1,-1,-167)" stroke-width="2" stroke-linecap="butt" stroke-miterlimit="10" stroke-linejoin="miter" fill="none" stroke="#000000" d="M 963.9805 349.8852 L 959.4544 347.4779 L 958.9876 351.0476 Z M 963.9805 349.8852 "/>
<path transform="matrix(1,0,0,-1,0,595)" d="M 1058.927 411.6869 L 1100.79 411.6869 C 1105.742 411.6869 1109.761 398.3952 1109.761 382.0178 C 1109.761 365.6405 1105.742 352.3487 1100.79 352.3487 L 1058.927 352.3487 C 1053.975 352.3487 1049.957 365.6405 1049.957 382.0178 C 1049.957 398.3952 1053.975 411.6869 1058.927 411.6869 Z M 1058.927 411.6869 " fill="#fda25f" fill-opacity=".5049"/>
<path transform="matrix(1,0,0,1,-1,-167)" stroke-width="1.5" stroke-linecap="round" stroke-linejoin="round" fill="none" stroke="#000000" d="M 1059.927 350.3131 L 1101.79 350.3131 C 1106.742 350.3131 1110.761 363.6048 1110.761 379.9822 C 1110.761 396.3595 1106.742 409.6513 1101.79 409.6513 L 1059.927 409.6513 C 1054.975 409.6513 1050.957 396.3595 1050.957 379.9822 C 1050.957 363.6048 1054.975 350.3131 1059.927 350.3131 Z M 1059.927 350.3131 "/>
<text xml:space="preserve" transform="matrix(1 0 0 1 -1 -167)" font-size="21" font-family="HelveticaNeue" font-style="italic"><tspan y="387.6882" x="1058.893 1074.0549 1087.663">CPU</tspan></text>
<path transform="matrix(1,0,0,1,-1,-167)" stroke-width="2" stroke-linecap="round" stroke-linejoin="round" fill="none" stroke="#000000" d="M 745.0386 321.2532 L 1072.789 349.6148 "/>
<path transform="matrix(1,0,0,-1,0,595)" d="M 1076.571 411.9714 L 1071.944 414.1785 L 1071.634 410.5919 Z M 1076.571 411.9714 "/>
<path transform="matrix(1,0,0,1,-1,-167)" stroke-width="2" stroke-linecap="butt" stroke-miterlimit="10" stroke-linejoin="miter" fill="none" stroke="#000000" d="M 1077.571 350.0286 L 1072.944 347.8215 L 1072.634 351.4081 Z M 1077.571 350.0286 "/>
<path transform="matrix(1,0,0,-1,0,595)" d="M 644.5597 411.6869 L 725.7871 411.6869 C 735.3951 411.6869 743.193 398.3952 743.193 382.0178 C 743.193 365.6405 735.3951 352.3487 725.7871 352.3487 L 644.5597 352.3487 C 634.9517 352.3487 627.1538 365.6405 627.1538 382.0178 C 627.1538 398.3952 634.9517 411.6869 644.5597 411.6869 Z M 644.5597 411.6869 " fill="#fda25f" fill-opacity=".5049"/>
<path transform="matrix(1,0,0,1,-1,-167)" stroke-width="1.5" stroke-linecap="round" stroke-linejoin="round" fill="none" stroke="#000000" d="M 645.5597 350.3131 L 726.7871 350.3131 C 736.3951 350.3131 744.193 363.6048 744.193 379.9822 C 744.193 396.3595 736.3951 409.6513 726.7871 409.6513 L 645.5597 409.6513 C 635.9517 409.6513 628.1538 396.3595 628.1538 379.9822 C 628.1538 363.6048 635.9517 350.3131 645.5597 350.3131 Z M 645.5597 350.3131 "/>
<text xml:space="preserve" transform="matrix(1 0 0 1 -1 -167)" font-size="21" font-family="HelveticaNeue" font-style="italic"><tspan y="387.6882" x="641.2439 655.2509 666.5279 676.6289 689.0819 701.1359 712.0349 718.6499">Keyboard</tspan></text>
<path transform="matrix(1,0,0,1,-1,-167)" stroke-width="2" stroke-linecap="round" stroke-linejoin="round" fill="none" stroke="#000000" d="M 745.0386 321.2532 L 693.4366 346.7275 "/>
<path transform="matrix(1,0,0,-1,0,595)" d="M 688.1325 413.1477 L 693.2334 413.6585 L 691.6398 416.8866 Z M 688.1325 413.1477 "/>
<path transform="matrix(1,0,0,1,-1,-167)" stroke-width="2" stroke-linecap="butt" stroke-miterlimit="10" stroke-linejoin="miter" fill="none" stroke="#000000" d="M 689.1325 348.8523 L 694.2334 348.3415 L 692.6398 345.1134 Z M 689.1325 348.8523 "/>
<path transform="matrix(1,0,0,-1,0,595)" d="M 863.1247 584.3218 L 946.0334 584.3218 C 955.8403 584.3218 963.7995 571.0301 963.7995 554.6527 C 963.7995 538.2754 955.8403 524.9836 946.0334 524.9836 L 863.1247 524.9836 C 853.3178 524.9836 845.3586 538.2754 845.3586 554.6527 C 845.3586 571.0301 853.3178 584.3218 863.1247 584.3218 Z M 863.1247 584.3218 " fill="#a77bd7" fill-opacity=".5"/>
<path transform="matrix(1,0,0,1,-1,-167)" stroke-width="1.5" stroke-linecap="round" stroke-linejoin="round" fill="none" stroke="#000000" d="M 864.1247 177.6782 L 947.0334 177.6782 C 956.8403 177.6782 964.7995 190.9699 964.7995 207.3473 C 964.7995 223.7246 956.8403 237.0164 947.0334 237.0164 L 864.1247 237.0164 C 854.3178 237.0164 846.3586 223.7246 846.3586 207.3473 C 846.3586 190.9699 854.3178 177.6782 864.1247 177.6782 Z M 864.1247 177.6782 "/>
<text xml:space="preserve" transform="matrix(1 0 0 1 -1 -167)" font-size="21" font-family="HelveticaNeue" font-style="italic"><tspan y="202.7593" x="859.106 871.937 876.599 887.876 899.15298 905.76797 912.38296 924.43698 936.113 940.77499 952.05197">Electronic </tspan></text>
<text xml:space="preserve" transform="matrix(1 0 0 1 -1 -167)" font-size="21" font-family="HelveticaNeue" font-style="italic"><tspan y="227.3473" x="873.89 888.674 899.951 910.052 914.714 925.99099">Device</tspan></text>
<path transform="matrix(1,0,0,-1,0,595)" d="M 1081.758 500.085 L 1151.909 500.085 C 1160.207 500.085 1166.941 486.7932 1166.941 470.4159 C 1166.941 454.0386 1160.207 440.7468 1151.909 440.7468 L 1081.758 440.7468 C 1073.46 440.7468 1066.726 454.0386 1066.726 470.4159 C 1066.726 486.7932 1073.46 500.085 1081.758 500.085 Z M 1081.758 500.085 " fill="#3a8eed" fill-opacity=".4943"/>
<path transform="matrix(1,0,0,1,-1,-167)" stroke-width="1.5" stroke-linecap="round" stroke-linejoin="round" fill="none" stroke="#000000" d="M 1082.758 261.915 L 1152.909 261.915 C 1161.207 261.915 1167.941 275.2068 1167.941 291.5841 C 1167.941 307.9614 1161.207 321.2532 1152.909 321.2532 L 1082.758 321.2532 C 1074.46 321.2532 1067.726 307.9614 1067.726 291.5841 C 1067.726 275.2068 1074.46 261.915 1082.758 261.915 Z M 1082.758 261.915 "/>
<text xml:space="preserve" transform="matrix(1 0 0 1 -1 -167)" font-size="21" font-family="HelveticaNeue" font-style="italic"><tspan y="299.2901" x="1081.272 1096.434 1107.333 1125.225 1136.502 1143.495">Camera</tspan></text>
<path transform="matrix(1,0,0,-1,0,595)" d="M 801.2465 411.6869 L 868.2012 411.6869 C 876.121 411.6869 882.5487 398.3952 882.5487 382.0178 C 882.5487 365.6405 876.121 352.3487 868.2012 352.3487 L 801.2465 352.3487 C 793.3267 352.3487 786.899 365.6405 786.899 382.0178 C 786.899 398.3952 793.3267 411.6869 801.2465 411.6869 Z M 801.2465 411.6869 " fill="#fda25f" fill-opacity=".5049"/>
<path transform="matrix(1,0,0,1,-1,-167)" stroke-width="1.5" stroke-linecap="round" stroke-linejoin="round" fill="none" stroke="#000000" d="M 802.2465 350.3131 L 869.2012 350.3131 C 877.121 350.3131 883.5487 363.6048 883.5487 379.9822 C 883.5487 396.3595 877.121 409.6513 869.2012 409.6513 L 802.2465 409.6513 C 794.3267 409.6513 787.899 396.3595 787.899 379.9822 C 787.899 363.6048 794.3267 350.3131 802.2465 350.3131 Z M 802.2465 350.3131 "/>
<text xml:space="preserve" transform="matrix(1 0 0 1 -1 -167)" font-size="21" font-family="HelveticaNeue" font-style="italic"><tspan y="387.6882" x="815.8999 830.6839 835.3459 845.4469">Disk</tspan></text>
<path transform="matrix(1,0,0,1,-1,-167)" stroke-width="2" stroke-linecap="round" stroke-linejoin="round" fill="none" stroke="#000000" d="M 846.3586 208.0526 L 752.1908 258.1129 "/>
<path transform="matrix(1,0,0,-1,0,595)" d="M 746.9524 501.634 L 752.0357 502.2978 L 750.3458 505.4765 Z M 746.9524 501.634 "/>
<path transform="matrix(1,0,0,1,-1,-167)" stroke-width="2" stroke-linecap="butt" stroke-miterlimit="10" stroke-linejoin="miter" fill="none" stroke="#000000" d="M 747.9524 260.366 L 753.0357 259.7022 L 751.3458 256.5235 Z M 747.9524 260.366 "/>
<path transform="matrix(1,0,0,1,-1,-167)" stroke-width="2" stroke-linecap="round" stroke-linejoin="round" fill="none" stroke="#000000" d="M 964.7995 208.7105 L 1110.183 259.2551 "/>
<path transform="matrix(1,0,0,-1,0,595)" d="M 1113.716 501.1687 L 1109.774 504.4451 L 1108.591 501.0447 Z M 1113.716 501.1687 "/>
<path transform="matrix(1,0,0,1,-1,-167)" stroke-width="2" stroke-linecap="butt" stroke-miterlimit="10" stroke-linejoin="miter" fill="none" stroke="#000000" d="M 1114.716 260.8313 L 1110.774 257.5549 L 1109.591 260.9553 Z M 1114.716 260.8313 "/>
<path transform="matrix(1,0,0,1,-1,-167)" stroke-width="2" stroke-linecap="round" stroke-linejoin="round" fill="none" stroke="#000000" d="M 745.0386 321.2532 L 828.0102 347.8413 "/>
<path transform="matrix(1,0,0,-1,0,595)" d="M 831.5813 412.694 L 827.5595 415.8729 L 826.4609 412.4446 Z M 831.5813 412.694 "/>
<path transform="matrix(1,0,0,1,-1,-167)" stroke-width="2" stroke-linecap="butt" stroke-miterlimit="10" stroke-linejoin="miter" fill="none" stroke="#000000" d="M 832.5813 349.306 L 828.5595 346.1271 L 827.4609 349.5554 Z M 832.5813 349.306 "/>
<text xml:space="preserve" transform="matrix(1 0 0 1 -1 -167)" font-size="25" font-family="HelveticaNeue" font-weight="bold"><tspan y="204.065" x="622.9809 641.0309 655.38088 668.80587 683.63088 690.0809 698.88088 705.3309 720.1559 735.4309">Resulting </tspan></text>
<text xml:space="preserve" transform="matrix(1 0 0 1 -1 -167)" font-size="25" font-family="HelveticaNeue" font-weight="bold"><tspan y="233.7902" x="618.5684 631.0684 645.4184 658.8434 674.1184 688.9434 704.21847 726.86849">Taxonomy</tspan></text>
<path transform="matrix(1,0,0,-1,0,595)" d="M 901.5323 500.085 L 971.6833 500.085 C 979.9811 500.085 986.7156 486.7932 986.7156 470.4159 C 986.7156 454.0386 979.9811 440.7468 971.6833 440.7468 L 901.5323 440.7468 C 893.2345 440.7468 886.5 454.0386 886.5 470.4159 C 886.5 486.7932 893.2345 500.085 901.5323 500.085 Z M 901.5323 500.085 " fill="#00c9cc" fill-opacity=".2"/>
<path transform="matrix(1,0,0,1,-1,-167)" stroke-width="1.5" stroke-linecap="round" stroke-linejoin="round" fill="none" stroke="#000000" d="M 902.5323 261.915 L 972.6833 261.915 C 980.9811 261.915 987.7156 275.2068 987.7156 291.5841 C 987.7156 307.9614 980.9811 321.2532 972.6833 321.2532 L 902.5323 321.2532 C 894.2345 321.2532 887.5 307.9614 887.5 291.5841 C 887.5 275.2068 894.2345 261.915 902.5323 261.915 Z M 902.5323 261.915 "/>
<text xml:space="preserve" transform="matrix(1 0 0 1 -1 -167)" font-size="21" font-family="HelveticaNeue" font-style="italic"><tspan y="286.9961" x="909.6043 923.2123 941.1043 952.0033 958.9963">Smart</tspan></text>
<text xml:space="preserve" transform="matrix(1 0 0 1 -1 -167)" font-size="21" font-family="HelveticaNeue" font-style="italic"><tspan y="311.5841" x="907.4623 921.07028 932.7463 944.8003 956.4763">Phone</tspan></text>
<path transform="matrix(1,0,0,1,-1,-167)" stroke-width="2" stroke-linecap="round" stroke-linejoin="round" fill="none" stroke="#000000" d="M 905.579 237.0164 L 931.2128 256.9437 "/>
<path transform="matrix(1,0,0,-1,0,595)" d="M 934.0024 502.1104 L 931.3176 506.4775 L 929.1081 503.6352 Z M 934.0024 502.1104 "/>
<path transform="matrix(1,0,0,1,-1,-167)" stroke-width="2" stroke-linecap="butt" stroke-miterlimit="10" stroke-linejoin="miter" fill="none" stroke="#000000" d="M 935.0024 259.8896 L 932.3176 255.5225 L 930.1081 258.3648 Z M 935.0024 259.8896 "/>
<path transform="matrix(1,0,0,1,-1,-167)" stroke-width="2" stroke-linecap="round" stroke-linejoin="round" fill="none" stroke="#000000" d="M 937.6078 321.2532 L 843.5132 348.0914 "/>
<path transform="matrix(1,0,0,-1,0,595)" d="M 837.8973 412.5921 L 843.0069 412.1777 L 842.0195 415.6396 Z M 837.8973 412.5921 "/>
<path transform="matrix(1,0,0,1,-1,-167)" stroke-width="2" stroke-linecap="butt" stroke-miterlimit="10" stroke-linejoin="miter" fill="none" stroke="#000000" d="M 838.8973 349.4079 L 844.0069 349.8223 L 843.0195 346.3604 Z M 838.8973 349.4079 "/>
<path transform="matrix(1,0,0,1,-1,-167)" stroke-width="2" stroke-linecap="round" stroke-linejoin="round" fill="none" stroke="#000000" d="M 937.6078 321.2532 L 1072.92 348.7027 "/>
<path transform="matrix(1,0,0,-1,0,595)" d="M 1076.624 412.343 L 1072.278 415.0614 L 1071.562 411.5332 Z M 1076.624 412.343 "/>
<path transform="matrix(1,0,0,1,-1,-167)" stroke-width="2" stroke-linecap="butt" stroke-miterlimit="10" stroke-linejoin="miter" fill="none" stroke="#000000" d="M 1077.624 349.657 L 1073.278 346.9386 L 1072.562 350.4668 Z M 1077.624 349.657 "/>
<path transform="matrix(1,0,0,1,-1,-167)" stroke-width="2" stroke-linecap="round" stroke-linejoin="round" fill="none" stroke="#000000" d="M 937.6078 321.2532 L 961.4683 344.6429 "/>
<path transform="matrix(1,0,0,-1,0,595)" d="M 963.896 413.997 L 961.7283 418.6425 L 959.2082 416.0717 Z M 963.896 413.997 "/>
<path transform="matrix(1,0,0,1,-1,-167)" stroke-width="2" stroke-linecap="butt" stroke-miterlimit="10" stroke-linejoin="miter" fill="none" stroke="#000000" d="M 964.896 348.003 L 962.7283 343.3575 L 960.2082 345.9283 Z M 964.896 348.003 "/>
<path transform="matrix(1,0,0,-1,0,595)" d="M 775.8292 330.9631 L 817.6921 330.9631 C 822.6439 330.9631 826.6627 317.6713 826.6627 301.294 C 826.6627 284.9167 822.6439 271.6249 817.6921 271.6249 L 775.8292 271.6249 C 770.8774 271.6249 766.8586 284.9167 766.8586 301.294 C 766.8586 317.6713 770.8774 330.9631 775.8292 330.9631 Z M 775.8292 330.9631 " fill="#00c9cc" fill-opacity=".2"/>
<path transform="matrix(1,0,0,1,-1,-167)" stroke-width="1.5" stroke-linecap="round" stroke-linejoin="round" fill="none" stroke="#000000" d="M 776.8292 431.0369 L 818.6921 431.0369 C 823.6439 431.0369 827.6627 444.3287 827.6627 460.706 C 827.6627 477.0833 823.6439 490.3751 818.6921 490.3751 L 776.8292 490.3751 C 771.8774 490.3751 767.8586 477.0833 767.8586 460.706 C 767.8586 444.3287 771.8774 431.0369 776.8292 431.0369 Z M 776.8292 431.0369 "/>
<text xml:space="preserve" transform="matrix(1 0 0 1 -1 -167)" font-size="21" font-family="HelveticaNeue" font-style="italic"><tspan y="468.412" x="776.7607 790.36868 803.9766">SSD</tspan></text>
<path transform="matrix(1,0,0,-1,0,595)" d="M 900.4706 330.9631 L 942.3335 330.9631 C 947.2853 330.9631 951.3041 317.6713 951.3041 301.294 C 951.3041 284.9167 947.2853 271.6249 942.3335 271.6249 L 900.4706 271.6249 C 895.5188 271.6249 891.5 284.9167 891.5 301.294 C 891.5 317.6713 895.5188 330.9631 900.4706 330.9631 Z M 900.4706 330.9631 " fill="#f7788a" fill-opacity=".5"/>
<path transform="matrix(1,0,0,1,-1,-167)" stroke-width="1.5" stroke-linecap="round" stroke-linejoin="round" fill="none" stroke="#000000" d="M 901.4706 431.0369 L 943.3335 431.0369 C 948.2853 431.0369 952.3041 444.3287 952.3041 460.706 C 952.3041 477.0833 948.2853 490.3751 943.3335 490.3751 L 901.4706 490.3751 C 896.5188 490.3751 892.5 477.0833 892.5 460.706 C 892.5 444.3287 896.5188 431.0369 901.4706 431.0369 Z M 901.4706 431.0369 "/>
<text xml:space="preserve" transform="matrix(1 0 0 1 -1 -167)" font-size="21" font-family="HelveticaNeue" font-style="italic"><tspan y="468.412" x="900.0371 915.1991 929.9831">HDD</tspan></text>
<path transform="matrix(1,0,0,1,-1,-167)" stroke-width="2" stroke-linecap="round" stroke-linejoin="round" fill="none" stroke="#000000" d="M 835.7239 409.6513 L 914.5379 429.0966 "/>
<path transform="matrix(1,0,0,-1,0,595)" d="M 918.1981 331.7536 L 913.9691 334.651 L 913.1067 331.1558 Z M 918.1981 331.7536 "/>
<path transform="matrix(1,0,0,1,-1,-167)" stroke-width="2" stroke-linecap="butt" stroke-miterlimit="10" stroke-linejoin="miter" fill="none" stroke="#000000" d="M 919.1981 430.2464 L 914.9691 427.349 L 914.1067 430.8442 Z M 919.1981 430.2464 "/>
<path transform="matrix(1,0,0,1,-1,-167)" stroke-width="2" stroke-linecap="round" stroke-linejoin="round" fill="none" stroke="#000000" d="M 835.7239 409.6513 L 804.8179 427.0614 "/>
<path transform="matrix(1,0,0,-1,0,595)" d="M 799.6358 332.5828 L 804.7014 333.3703 L 802.9345 336.5069 Z M 799.6358 332.5828 "/>
<path transform="matrix(1,0,0,1,-1,-167)" stroke-width="2" stroke-linecap="butt" stroke-miterlimit="10" stroke-linejoin="miter" fill="none" stroke="#000000" d="M 800.6358 429.4172 L 805.7014 428.6297 L 803.9345 425.4931 Z M 800.6358 429.4172 "/>
<path transform="matrix(1,0,0,-1,0,595)" d="M 213.1915 336.4571 L 255.0545 336.4571 C 260.0062 336.4571 264.0251 323.1653 264.0251 306.788 C 264.0251 290.4106 260.0062 277.1189 255.0545 277.1189 L 213.1915 277.1189 C 208.2398 277.1189 204.2209 290.4106 204.2209 306.788 C 204.2209 323.1653 208.2398 336.4571 213.1915 336.4571 Z M 213.1915 336.4571 " fill="#f7788a" fill-opacity=".5"/>
<path transform="matrix(1,0,0,1,-1,-167)" stroke-width="1.5" stroke-linecap="round" stroke-linejoin="round" fill="none" stroke="#000000" d="M 214.1915 425.5429 L 256.0545 425.5429 C 261.0062 425.5429 265.0251 438.8347 265.0251 455.212 C 265.0251 471.5894 261.0062 484.8811 256.0545 484.8811 L 214.1915 484.8811 C 209.2398 484.8811 205.2209 471.5894 205.2209 455.212 C 205.2209 438.8347 209.2398 425.5429 214.1915 425.5429 Z M 214.1915 425.5429 "/>
<text xml:space="preserve" transform="matrix(1 0 0 1 -1 -167)" font-size="21" font-family="HelveticaNeue" font-style="italic"><tspan y="462.918" x="212.758 227.92 242.704">HDD</tspan></text>
<path transform="matrix(1,0,0,1,-1,-167)" stroke-width="2" stroke-linecap="round" stroke-linejoin="round" fill="none" stroke="#000000" d="M 221.1851 405.1415 L 230.5537 418.8547 "/>
<path transform="matrix(1,0,0,-1,0,595)" d="M 232.2614 339.1819 L 231.04 344.1607 L 228.0675 342.1299 Z M 232.2614 339.1819 "/>
<path transform="matrix(1,0,0,1,-1,-167)" stroke-width="2" stroke-linecap="butt" stroke-miterlimit="10" stroke-linejoin="miter" fill="none" stroke="#000000" d="M 233.2614 422.8181 L 232.04 417.8393 L 229.0675 419.8701 Z M 233.2614 422.8181 "/>
<text xml:space="preserve" transform="matrix(1 0 0 1 -1 -167)" font-size="21" font-family="HelveticaNeue"><tspan y="380.7077" x="755.546">&#x2026;</tspan></text>
<text xml:space="preserve" transform="matrix(1 0 0 1 -1 -167)" font-size="21" font-family="HelveticaNeue"><tspan y="444.1362" x="741.8586">&#x2026;</tspan></text>
<text xml:space="preserve" transform="matrix(1 0 0 1 -1 -167)" font-size="21" font-family="HelveticaNeue"><tspan y="289.9817" x="1021.176">&#x2026;</tspan></text>
<path transform="matrix(1,0,0,1,-1,-167)" stroke-width="2" stroke-linecap="round" stroke-linejoin="round" fill="none" stroke="#000000" d="M 1117.833 321.2532 L 1125.525 422.96 "/>
<path transform="matrix(1,0,0,-1,0,595)" d="M 1124.887 334.2537 L 1126.32 339.1758 L 1122.73 338.9043 Z M 1124.887 334.2537 "/>
<path transform="matrix(1,0,0,1,-1,-167)" stroke-width="2" stroke-linecap="butt" stroke-miterlimit="10" stroke-linejoin="miter" fill="none" stroke="#000000" d="M 1125.887 427.7463 L 1127.32 422.8242 L 1123.73 423.0957 Z M 1125.887 427.7463 "/>
<path transform="matrix(1,0,0,-1,0,595)" d="M 507.4361 424.1195 L 557.219 424.1195 C 563.1076 424.1195 567.8868 410.8277 567.8868 394.4504 C 567.8868 378.073 563.1076 364.7813 557.219 364.7813 L 507.4361 364.7813 C 501.5475 364.7813 496.7683 378.073 496.7683 394.4504 C 496.7683 410.8277 501.5475 424.1195 507.4361 424.1195 Z M 507.4361 424.1195 " fill="#00c9cc" fill-opacity=".2"/>
<path transform="matrix(1,0,0,1,-1,-167)" stroke-width="1.5" stroke-linecap="round" stroke-linejoin="round" fill="none" stroke="#000000" d="M 508.4361 337.8805 L 558.219 337.8805 C 564.1076 337.8805 568.8868 351.1723 568.8868 367.5496 C 568.8868 383.927 564.1076 397.2187 558.219 397.2187 L 508.4361 397.2187 C 502.5475 397.2187 497.7683 383.927 497.7683 367.5496 C 497.7683 351.1723 502.5475 337.8805 508.4361 337.8805 Z M 508.4361 337.8805 "/>
<text xml:space="preserve" transform="matrix(1 0 0 1 -1 -167)" font-size="21" font-family="HelveticaNeue" font-style="italic"><tspan y="362.9616" x="508.6316 520.6856 525.3476 536.2466 546.3476">Flash</tspan></text>
<text xml:space="preserve" transform="matrix(1 0 0 1 -1 -167)" font-size="21" font-family="HelveticaNeue" font-style="italic"><tspan y="387.5496" x="510.7631 525.9251 536.8241 543.4391">Card</tspan></text>
<path transform="matrix(1,0,0,-1,0,595)" d="M 1102.096 330.9631 L 1148.176 330.9631 C 1153.627 330.9631 1158.05 317.6713 1158.05 301.294 C 1158.05 284.9167 1153.627 271.6249 1148.176 271.6249 L 1102.096 271.6249 C 1096.646 271.6249 1092.222 284.9167 1092.222 301.294 C 1092.222 317.6713 1096.646 330.9631 1102.096 330.9631 Z M 1102.096 330.9631 " fill="#00c9cc" fill-opacity=".2"/>
<path transform="matrix(1,0,0,1,-1,-167)" stroke-width="1.5" stroke-linecap="round" stroke-linejoin="round" fill="none" stroke="#000000" d="M 1103.096 431.0369 L 1149.176 431.0369 C 1154.627 431.0369 1159.05 444.3287 1159.05 460.706 C 1159.05 477.0833 1154.627 490.3751 1149.176 490.3751 L 1103.096 490.3751 C 1097.646 490.3751 1093.222 477.0833 1093.222 460.706 C 1093.222 444.3287 1097.646 431.0369 1103.096 431.0369 Z M 1103.096 431.0369 "/>
<text xml:space="preserve" transform="matrix(1 0 0 1 -1 -167)" font-size="21" font-family="HelveticaNeue" font-style="italic"><tspan y="456.118" x="1101.44 1113.4939 1118.1559 1129.0549 1139.1559">Flash</tspan></text>
<text xml:space="preserve" transform="matrix(1 0 0 1 -1 -167)" font-size="21" font-family="HelveticaNeue" font-style="italic"><tspan y="480.706" x="1103.572 1118.734 1129.633 1136.248">Card</tspan></text>
<path transform="matrix(1,0,0,-1,0,595)" d="M 4.331371 151.3942 L 255.03798 151.3942 L 255.03798 201.3942 L 4.331371 201.3942 Z " fill="#dae2f2"/>
<path transform="matrix(1,0,0,1,-1,-167)" stroke-width="2" stroke-linecap="round" stroke-linejoin="round" fill="none" stroke="#000000" d="M 5.331371 560.6058 L 256.038 560.6058 L 256.038 610.6058 L 5.331371 610.6058 Z "/>
<text xml:space="preserve" transform="matrix(1 0 0 1 -1 -167)" font-size="30" font-family="HelveticaNeue" font-style="italic"><tspan y="596.6858" x="43.44468 62.88468 88.44469 104.01469 114.004688 123.45468 131.79468 151.23468 167.91469 185.13469 201.8147">Smart Phone</tspan></text>
<path transform="matrix(1,0,0,-1,0,595)" d="M 255.038 1.394235 L 809.61758 1.394235 L 809.61758 51.394235 L 255.038 51.394235 Z " fill="#dae2f2"/>
<path transform="matrix(1,0,0,1,-1,-167)" stroke-width="2" stroke-linecap="round" stroke-linejoin="round" fill="none" stroke="#000000" d="M 256.038 710.6058 L 810.6175 710.6058 L 810.6175 760.6058 L 256.038 760.6058 Z "/>
<text xml:space="preserve" transform="matrix(1 0 0 1 -1 -167)" font-size="30" font-family="HelveticaNeue" font-style="italic"><tspan y="746.6858" x="383.3577 401.3577 409.6977 430.8177 446.92768 461.35768 475.78767 485.23768 502.45768 520.2477 528.5877 536.92776 556.93777 573.0477 587.4777 605.2677 622.4877 638.0577 647.5077 665.29769">&#x003c; Desktop, Keyboard&#x003e;</tspan></text>
<path transform="matrix(1,0,0,-1,0,595)" d="M 809.6175 101.3942 L 1191.6915 101.3942 L 1191.6915 151.3942 L 809.6175 151.3942 Z " fill="#dae2f2"/>
<path transform="matrix(1,0,0,1,-1,-167)" stroke-width="2" stroke-linecap="round" stroke-linejoin="round" fill="none" stroke="#000000" d="M 810.6175 610.6058 L 1192.692 610.6058 L 1192.692 660.6058 L 810.6175 660.6058 Z "/>
<text xml:space="preserve" transform="matrix(1 0 0 1 -1 -167)" font-size="30" font-family="HelveticaNeue"><tspan y="646.6858" x="832.2295 851.6695 867.7795 877.7695 887.2195 893.87948 909.98947 916.6494 923.3094 938.3094 949.9794 966.08938 983.3093 993.2993 1002.7493 1018.8593 1034.9694 1044.4193 1052.7593 1074.4193 1090.5293 1107.7493 1123.8593 1133.3092 1139.9692 1154.9692">Partially-correct Negative</tspan></text>
<path transform="matrix(1,0,0,-1,0,595)" d="M 255.038 151.3942 L 809.61758 151.3942 L 809.61758 201.3942 L 255.038 201.3942 Z " fill="#dae2f2"/>
<path transform="matrix(1,0,0,1,-1,-167)" stroke-width="2" stroke-linecap="round" stroke-linejoin="round" fill="none" stroke="#000000" d="M 256.038 560.6058 L 810.6175 560.6058 L 810.6175 610.6058 L 256.038 610.6058 Z "/>
<text xml:space="preserve" transform="matrix(1 0 0 1 -1 -167)" font-size="30" font-family="HelveticaNeue" font-style="italic"><tspan y="596.6858" x="351.4377 369.4377 377.7777 396.1077 402.7677 418.8777 434.98768 444.43769 453.88768 471.10768 487.78767 494.44767 510.55769 518.8977 540.0177 556.1277 570.5577 577.21768 593.32766 609.4376 617.77767 626.1177 647.77767 667.21768 688.8776 697.21768">&#x003c; Electronic Device, CPU &#x003e;</tspan></text>
<path transform="matrix(1,0,0,-1,0,595)" d="M 4.331371 101.3942 L 255.03798 101.3942 L 255.03798 151.3942 L 4.331371 151.3942 Z " fill="#dae2f2"/>
<path transform="matrix(1,0,0,1,-1,-167)" stroke-width="2" stroke-linecap="round" stroke-linejoin="round" fill="none" stroke="#000000" d="M 5.331371 610.6058 L 256.038 610.6058 L 256.038 660.6058 L 5.331371 660.6058 Z "/>
<text xml:space="preserve" transform="matrix(1 0 0 1 -1 -167)" font-size="30" font-family="HelveticaNeue" font-style="italic"><tspan y="646.6858" x="43.44468 62.88468 88.44469 104.01469 114.004688 123.45468 131.79468 151.23468 167.91469 185.13469 201.8147">Smart Phone</tspan></text>
<path transform="matrix(1,0,0,-1,0,595)" d="M 255.038 101.3942 L 809.61758 101.3942 L 809.61758 151.3942 L 255.038 151.3942 Z " fill="#dae2f2"/>
<path transform="matrix(1,0,0,1,-1,-167)" stroke-width="2" stroke-linecap="round" stroke-linejoin="round" fill="none" stroke="#000000" d="M 256.038 610.6058 L 810.6175 610.6058 L 810.6175 660.6058 L 256.038 660.6058 Z "/>
<text xml:space="preserve" transform="matrix(1 0 0 1 -1 -167)" font-size="30" font-family="HelveticaNeue" font-style="italic"><tspan y="646.6858" x="350.8677 368.8677 377.2077 395.5377 402.1977 418.30769 434.41767 443.86769 453.31767 470.53767 487.21766 493.87767 509.98768 518.3277 539.4477 555.5577 569.9877 576.64767 592.7576 608.8676 617.20767 625.54769 647.20767 668.32766 689.44766 697.78768">&#x003c; Electronic Device, HDD &#x003e;</tspan></text>
<path transform="matrix(1,0,0,-1,0,595)" d="M 4.331371 51.39424 L 255.03798 51.39424 L 255.03798 101.39424 L 4.331371 101.39424 Z " fill="#dae2f2"/>
<path transform="matrix(1,0,0,1,-1,-167)" stroke-width="2" stroke-linecap="round" stroke-linejoin="round" fill="none" stroke="#000000" d="M 5.331371 660.6058 L 256.038 660.6058 L 256.038 710.6058 L 5.331371 710.6058 Z "/>
<text xml:space="preserve" transform="matrix(1 0 0 1 -1 -167)" font-size="30" font-family="HelveticaNeue" font-style="italic"><tspan y="696.6858" x="43.44468 62.88468 88.44469 104.01469 114.004688 123.45468 131.79468 151.23468 167.91469 185.13469 201.8147">Smart Phone</tspan></text>
<path transform="matrix(1,0,0,-1,0,595)" d="M 255.038 51.39424 L 809.61758 51.39424 L 809.61758 101.39424 L 255.038 101.39424 Z " fill="#dae2f2"/>
<path transform="matrix(1,0,0,1,-1,-167)" stroke-width="2" stroke-linecap="round" stroke-linejoin="round" fill="none" stroke="#000000" d="M 256.038 660.6058 L 810.6175 660.6058 L 810.6175 710.6058 L 256.038 710.6058 Z "/>
<text xml:space="preserve" transform="matrix(1 0 0 1 -1 -167)" font-size="30" font-family="HelveticaNeue" font-style="italic"><tspan y="696.6858" x="416.1627 434.1627 442.5027 463.62269 479.73268 494.16267 508.59266 518.04269 535.26266 553.0526 561.39266 569.73269 591.39266 610.83267 632.4926">&#x003c; Desktop, CPU&#x003e;</tspan></text>
<path transform="matrix(1,0,0,-1,0,595)" d="M 809.6175 51.39424 L 1191.6915 51.39424 L 1191.6915 101.39424 L 809.6175 101.39424 Z " fill="#dae2f2"/>
<path transform="matrix(1,0,0,1,-1,-167)" stroke-width="2" stroke-linecap="round" stroke-linejoin="round" fill="none" stroke="#000000" d="M 810.6175 660.6058 L 1192.692 660.6058 L 1192.692 710.6058 L 810.6175 710.6058 Z "/>
<text xml:space="preserve" transform="matrix(1 0 0 1 -1 -167)" font-size="30" font-family="HelveticaNeue"><tspan y="696.6858" x="832.2295 851.6695 867.7795 877.7695 887.2195 893.87948 909.98947 916.6494 923.3094 938.3094 949.9794 966.08938 983.3093 993.2993 1002.7493 1018.8593 1034.9694 1044.4193 1052.7593 1074.4193 1090.5293 1107.7493 1123.8593 1133.3092 1139.9692 1154.9692">Partially-correct Negative</tspan></text>
<path transform="matrix(1,0,0,-1,0,595)" d="M 809.6175 1.394235 L 1191.6915 1.394235 L 1191.6915 51.394235 L 809.6175 51.394235 Z " fill="#dae2f2"/>
<path transform="matrix(1,0,0,1,-1,-167)" stroke-width="2" stroke-linecap="round" stroke-linejoin="round" fill="none" stroke="#000000" d="M 810.6175 710.6058 L 1192.692 710.6058 L 1192.692 760.6058 L 810.6175 760.6058 Z "/>
<text xml:space="preserve" transform="matrix(1 0 0 1 -1 -167)" font-size="30" font-family="HelveticaNeue"><tspan y="746.6858" x="942.4945 964.1545 980.26449 997.48446 1013.5944 1023.04446 1029.7045 1044.7045">Negative</tspan></text>
<path transform="matrix(1,0,0,-1,0,595)" d="M 4.331371 1.394235 L 255.03798 1.394235 L 255.03798 51.394235 L 4.331371 51.394235 Z " fill="#dae2f2"/>
<path transform="matrix(1,0,0,1,-1,-167)" stroke-width="2" stroke-linecap="round" stroke-linejoin="round" fill="none" stroke="#000000" d="M 5.331371 710.6058 L 256.038 710.6058 L 256.038 760.6058 L 5.331371 760.6058 Z "/>
<text xml:space="preserve" transform="matrix(1 0 0 1 -1 -167)" font-size="30" font-family="HelveticaNeue" font-style="italic"><tspan y="746.6858" x="43.44468 62.88468 88.44469 104.01469 114.004688 123.45468 131.79468 151.23468 167.91469 185.13469 201.8147">Smart Phone</tspan></text>
<path transform="matrix(1,0,0,-1,0,595)" d="M 809.6175 151.3942 L 1191.6915 151.3942 L 1191.6915 201.3942 L 809.6175 201.3942 Z " fill="#dae2f2"/>
<path transform="matrix(1,0,0,1,-1,-167)" stroke-width="2" stroke-linecap="round" stroke-linejoin="round" fill="none" stroke="#000000" d="M 810.6175 560.6058 L 1192.692 560.6058 L 1192.692 610.6058 L 810.6175 610.6058 Z "/>
<text xml:space="preserve" transform="matrix(1 0 0 1 -1 -167)" font-size="30" font-family="HelveticaNeue"><tspan y="596.6858" x="948.8845 968.3245 985.5445 1000.5445 1007.20449 1016.6545 1023.31448 1038.3145">Positive</tspan></text>
<path transform="matrix(1,0,0,-1,0,595)" d="M 809.6173 201.3942 L 1191.6915 201.3942 L 1191.6915 251.3942 L 809.6173 251.3942 Z " fill="#81b0da"/>
<path transform="matrix(1,0,0,1,-1,-167)" stroke-width="2" stroke-linecap="round" stroke-linejoin="round" fill="none" stroke="#000000" d="M 810.6173 510.6058 L 1192.691 510.6058 L 1192.691 560.6058 L 810.6173 560.6058 Z "/>
<text xml:space="preserve" transform="matrix(1 0 0 1 -1 -167)" font-size="30" font-family="HelveticaNeue"><tspan y="546.6858" x="964.9794 981.65939 997.76937 1015.5593 1031.6693">Label</tspan></text>
<path transform="matrix(1,0,0,-1,0,595)" d="M 4.320954 201.3942 L 255.02756 201.3942 L 255.02756 251.3942 L 4.320954 251.3942 Z " fill="#81b0da"/>
<path transform="matrix(1,0,0,1,-1,-167)" stroke-width="2" stroke-linecap="round" stroke-linejoin="round" fill="none" stroke="#000000" d="M 5.320954 510.6058 L 256.0276 510.6058 L 256.0276 560.6058 L 5.320954 560.6058 Z "/>
<text xml:space="preserve" transform="matrix(1 0 0 1 -1 -167)" font-size="30" font-family="HelveticaNeue"><tspan y="546.6858" x="90.38426 113.184268 129.86428 145.97428 155.96428">Query</tspan></text>
<path transform="matrix(1,0,0,-1,0,595)" d="M 255.0378 201.3942 L 809.6173 201.3942 L 809.6173 251.3942 L 255.0378 251.3942 Z " fill="#81b0da"/>
<path transform="matrix(1,0,0,1,-1,-167)" stroke-width="2" stroke-linecap="round" stroke-linejoin="round" fill="none" stroke="#000000" d="M 256.0378 510.6058 L 810.6173 510.6058 L 810.6173 560.6058 L 256.0378 560.6058 Z "/>
<text xml:space="preserve" transform="matrix(1 0 0 1 -1 -167)" font-size="30" font-family="HelveticaNeue"><tspan y="546.6858" x="405.8126 427.4726 443.58259 460.26258 478.05259 484.7126 502.5026 518.6126 528.0626 544.1726 552.51266 571.95266 589.1726 604.1726 610.8326 620.2826 626.94259 644.16256">Candidate Position</tspan></text>
<path transform="matrix(1,0,0,1,-1,-167)" stroke-width="2" stroke-linecap="round" stroke-dasharray="4,4" stroke-linejoin="round" fill="none" stroke="#ff2604" d="M 768.8737 424.7502 L 828.4472 424.7502 C 832.8655 424.7502 836.4472 428.3319 836.4472 432.7502 L 836.4472 485.732 C 836.4472 490.1503 832.8655 493.732 828.4472 493.732 L 768.8737 493.732 C 764.4554 493.732 760.8737 490.1503 760.8737 485.732 L 760.8737 432.7502 C 760.8737 428.3319 764.4554 424.7502 768.8737 424.7502 Z M 768.8737 424.7502 "/>
<path transform="matrix(1,0,0,1,-1,-167)" stroke-width="2" stroke-linecap="round" stroke-dasharray="4,4" stroke-linejoin="round" fill="none" stroke="#ff2604" d="M 1092.331 424.7502 L 1159.941 424.7502 C 1164.359 424.7502 1167.941 428.3319 1167.941 432.7502 L 1167.941 486.7324 C 1167.941 491.1507 1164.359 494.7324 1159.941 494.7324 L 1092.331 494.7324 C 1087.913 494.7324 1084.331 491.1507 1084.331 486.7324 L 1084.331 432.7502 C 1084.331 428.3319 1087.913 424.7502 1092.331 424.7502 Z M 1092.331 424.7502 "/>
<path transform="matrix(1,0,0,1,-1,-167)" stroke-width="2" stroke-linecap="round" stroke-dasharray="4,4" stroke-linejoin="round" fill="none" stroke="#ff2604" d="M 887.5882 253.7192 L 987.6274 253.7192 C 992.0457 253.7192 995.6274 257.301 995.6274 261.7192 L 995.6274 321.449 C 995.6274 325.8672 992.0457 329.449 987.6274 329.449 L 887.5882 329.449 C 883.17 329.449 879.5882 325.8672 879.5882 321.449 L 879.5882 261.7192 C 879.5882 257.301 883.17 253.7192 887.5882 253.7192 Z M 887.5882 253.7192 "/>
<path transform="matrix(1,0,0,1,-1,-167)" stroke-width="2" stroke-linecap="round" stroke-dasharray="8,8" stroke-linejoin="round" fill="none" stroke="#ff2604" stroke-opacity=".5" d="M 575.8814 285.8562 C 583.9064 281.2321 655.6458 241.5573 752.3586 242.9688 C 795.4272 243.5973 834.9546 252.2499 866.3354 262.0854 "/>
<path transform="matrix(1,0,0,-1,0,595)" d="M 874.4535 496.9146 L 866.4595 503.3346 L 864.2093 496.4952 Z M 874.4535 496.9146 " fill="#ff2604" fill-opacity=".5"/>
<path transform="matrix(1,0,0,1,-1,-167)" stroke-width="2" stroke-linecap="butt" stroke-miterlimit="10" stroke-linejoin="miter" fill="none" stroke="#ff2604" stroke-opacity=".5" d="M 875.4535 265.0854 L 867.4595 258.6654 L 865.2093 265.5048 Z M 875.4535 265.0854 "/>
<path transform="matrix(1,0,0,1,-1,-167)" stroke-width="2" stroke-linecap="round" stroke-dasharray="8,8" stroke-linejoin="round" fill="none" stroke="#ff2604" stroke-opacity=".5" d="M 569.6356 448.3676 C 575.2224 445.1909 611.8343 425.8732 671.6086 428.588 C 698.9013 429.8276 725.6421 435.4161 747.496 441.489 "/>
<path transform="matrix(1,0,0,-1,0,595)" d="M 755.7074 317.8053 L 747.5112 323.9649 L 745.482 317.0568 Z M 755.7074 317.8053 " fill="#ff2604" fill-opacity=".5"/>
<path transform="matrix(1,0,0,1,-1,-167)" stroke-width="2" stroke-linecap="butt" stroke-miterlimit="10" stroke-linejoin="miter" fill="none" stroke="#ff2604" stroke-opacity=".5" d="M 756.7074 444.1947 L 748.5112 438.0351 L 746.482 444.9432 Z M 756.7074 444.1947 "/>
<path transform="matrix(1,0,0,1,-1,-167)" stroke-width="2" stroke-linecap="round" stroke-dasharray="8,8" stroke-linejoin="round" fill="none" stroke="#ff2604" stroke-opacity=".5" d="M 569.6367 367.4421 C 581.3857 365.7841 729.3114 345.8501 880.7805 370.9092 C 965.6774 384.9546 1030.219 409.5828 1071.747 429.3501 "/>
<path transform="matrix(1,0,0,-1,0,595)" d="M 1079.368 328.4251 L 1072.332 335.8825 L 1069.163 329.4173 Z M 1079.368 328.4251 " fill="#ff2604" fill-opacity=".5"/>
<path transform="matrix(1,0,0,1,-1,-167)" stroke-width="2" stroke-linecap="butt" stroke-miterlimit="10" stroke-linejoin="miter" fill="none" stroke="#ff2604" stroke-opacity=".5" d="M 1080.368 433.5749 L 1073.332 426.1175 L 1070.163 432.5827 Z M 1080.368 433.5749 "/>
<path transform="matrix(1,0,0,-1,0,595)" d="M 207.0708 580.9992 L 289.9794 580.9992 C 299.7863 580.9992 307.7455 567.7074 307.7455 551.3301 C 307.7455 534.9528 299.7863 521.661 289.9794 521.661 L 207.0708 521.661 C 197.2638 521.661 189.3046 534.9528 189.3046 551.3301 C 189.3046 567.7074 197.2638 580.9992 207.0708 580.9992 Z M 207.0708 580.9992 " fill="#a77bd7" fill-opacity=".5"/>
<path transform="matrix(1,0,0,1,-1,-167)" stroke-width="1.5" stroke-linecap="round" stroke-linejoin="round" fill="none" stroke="#000000" d="M 208.0708 181.0008 L 290.9794 181.0008 C 300.7863 181.0008 308.7455 194.2926 308.7455 210.6699 C 308.7455 227.0472 300.7863 240.339 290.9794 240.339 L 208.0708 240.339 C 198.2638 240.339 190.3046 227.0472 190.3046 210.6699 C 190.3046 194.2926 198.2638 181.0008 208.0708 181.0008 Z M 208.0708 181.0008 "/>
<text xml:space="preserve" transform="matrix(1 0 0 1 -1 -167)" font-size="21" font-family="HelveticaNeue" font-style="italic"><tspan y="206.0819" x="203.0521 215.88309 220.54509 231.82209 243.09909 249.7141 256.3291 268.3831 280.05909 284.72108 295.99809">Electronic </tspan></text>
<text xml:space="preserve" transform="matrix(1 0 0 1 -1 -167)" font-size="21" font-family="HelveticaNeue" font-style="italic"><tspan y="230.6699" x="217.8361 232.6201 243.8971 253.9981 258.6601 269.9371">Device</tspan></text>
<path transform="matrix(1,0,0,-1,0,595)" d="M 114.197 500.085 L 199.1166 500.085 C 209.1614 500.085 217.3136 486.7932 217.3136 470.4159 C 217.3136 454.0386 209.1614 440.7468 199.1166 440.7468 L 114.197 440.7468 C 104.1523 440.7468 96 454.0386 96 470.4159 C 96 486.7932 104.1523 500.085 114.197 500.085 Z M 114.197 500.085 " fill="#3a8eed" fill-opacity=".4943"/>
<path transform="matrix(1,0,0,1,-1,-167)" stroke-width="1.5" stroke-linecap="round" stroke-linejoin="round" fill="none" stroke="#000000" d="M 115.197 261.915 L 200.1166 261.915 C 210.1614 261.915 218.3136 275.2068 218.3136 291.5841 C 218.3136 307.9614 210.1614 321.2532 200.1166 321.2532 L 115.197 321.2532 C 105.1523 321.2532 97 307.9614 97 291.5841 C 97 275.2068 105.1523 261.915 115.197 261.915 Z M 115.197 261.915 "/>
<text xml:space="preserve" transform="matrix(1 0 0 1 -1 -167)" font-size="21" font-family="HelveticaNeue" font-style="italic"><tspan y="299.2901" x="118.9643 133.7483 145.0253 155.1263 165.2273 171.8423 183.8963">Desktop</tspan></text>
<path transform="matrix(1,0,0,-1,0,595)" d="M 302.197 500.085 L 387.1166 500.085 C 397.1614 500.085 405.3136 486.7932 405.3136 470.4159 C 405.3136 454.0386 397.1614 440.7468 387.1166 440.7468 L 302.197 440.7468 C 292.1523 440.7468 284 454.0386 284 470.4159 C 284 486.7932 292.1523 500.085 302.197 500.085 Z M 302.197 500.085 " fill="#3a8eed" fill-opacity=".4943"/>
<path transform="matrix(1,0,0,1,-1,-167)" stroke-width="1.5" stroke-linecap="round" stroke-linejoin="round" fill="none" stroke="#000000" d="M 303.197 261.915 L 388.1166 261.915 C 398.1614 261.915 406.3136 275.2068 406.3136 291.5841 C 406.3136 307.9614 398.1614 321.2532 388.1166 321.2532 L 303.197 321.2532 C 293.1523 321.2532 285 307.9614 285 291.5841 C 285 275.2068 293.1523 261.915 303.197 261.915 Z M 303.197 261.915 "/>
<text xml:space="preserve" transform="matrix(1 0 0 1 -1 -167)" font-size="21" font-family="HelveticaNeue" font-style="italic"><tspan y="299.2901" x="309.0958 324.25779 335.15678 353.04878 364.32579 371.3188">Camera</tspan></text>
<path transform="matrix(1,0,0,1,-1,-167)" stroke-width="2" stroke-linecap="round" stroke-linejoin="round" fill="none" stroke="#000000" d="M 308.7455 210.6699 L 340.9227 255.3425 "/>
<path transform="matrix(1,0,0,-1,0,595)" d="M 342.7281 502.7627 L 341.3833 507.7096 L 338.4621 505.6055 Z M 342.7281 502.7627 "/>
<path transform="matrix(1,0,0,1,-1,-167)" stroke-width="2" stroke-linecap="butt" stroke-miterlimit="10" stroke-linejoin="miter" fill="none" stroke="#000000" d="M 343.7281 259.2373 L 342.3833 254.2904 L 339.4621 256.3945 Z M 343.7281 259.2373 "/>
<path transform="matrix(1,0,0,1,-1,-167)" stroke-width="2" stroke-linecap="round" stroke-linejoin="round" fill="none" stroke="#000000" d="M 157.6568 321.2532 L 79.60594 343.576 "/>
<path transform="matrix(1,0,0,-1,0,595)" d="M 73.99097 417.1041 L 79.1009 416.6934 L 78.11098 420.1546 Z M 73.99097 417.1041 "/>
<path transform="matrix(1,0,0,1,-1,-167)" stroke-width="2" stroke-linecap="butt" stroke-miterlimit="10" stroke-linejoin="miter" fill="none" stroke="#000000" d="M 74.99097 344.8959 L 80.1009 345.3066 L 79.11098 341.8454 Z M 74.99097 344.8959 "/>
<path transform="matrix(1,0,0,1,-1,-167)" stroke-width="2" stroke-linecap="round" stroke-linejoin="round" fill="none" stroke="#000000" d="M 157.6568 321.2532 L 213.6296 342.8835 "/>
<path transform="matrix(1,0,0,-1,0,595)" d="M 217.1069 417.3862 L 213.2784 420.7955 L 211.9808 417.4375 Z M 217.1069 417.3862 "/>
<path transform="matrix(1,0,0,1,-1,-167)" stroke-width="2" stroke-linecap="butt" stroke-miterlimit="10" stroke-linejoin="miter" fill="none" stroke="#000000" d="M 218.1069 344.6138 L 214.2784 341.2045 L 212.9808 344.5625 Z M 218.1069 344.6138 "/>
<path transform="matrix(1,0,0,1,-1,-167)" stroke-width="2" stroke-linecap="round" stroke-linejoin="round" fill="none" stroke="#000000" d="M 157.6568 321.2532 L 320.0905 344.6486 "/>
<path transform="matrix(1,0,0,-1,0,595)" d="M 323.8415 416.6672 L 319.3471 419.1331 L 318.8339 415.5698 Z M 323.8415 416.6672 "/>
<path transform="matrix(1,0,0,1,-1,-167)" stroke-width="2" stroke-linecap="butt" stroke-miterlimit="10" stroke-linejoin="miter" fill="none" stroke="#000000" d="M 324.8415 345.3328 L 320.3471 342.8669 L 319.8339 346.4302 Z M 324.8415 345.3328 "/>
<path transform="matrix(1,0,0,1,-1,-167)" stroke-width="2" stroke-linecap="round" stroke-linejoin="round" fill="none" stroke="#000000" d="M 157.6568 321.2532 L 409.0438 345.0402 "/>
<path transform="matrix(1,0,0,-1,0,595)" d="M 412.8225 416.5076 L 408.2134 418.7518 L 407.8743 415.1678 Z M 412.8225 416.5076 "/>
<path transform="matrix(1,0,0,1,-1,-167)" stroke-width="2" stroke-linecap="butt" stroke-miterlimit="10" stroke-linejoin="miter" fill="none" stroke="#000000" d="M 413.8225 345.4924 L 409.2134 343.2482 L 408.8743 346.8322 Z M 413.8225 345.4924 "/>
<text xml:space="preserve" transform="matrix(1 0 0 1 -1 -167)" font-size="21" font-family="HelveticaNeue"><tspan y="294" x="239.0251">&#x2026;</tspan></text>
<text xml:space="preserve" transform="matrix(1 0 0 1 -1 -167)" font-size="21" font-family="HelveticaNeue"><tspan y="466.9471" x="1001.277">&#x2026;</tspan></text>
<text xml:space="preserve" transform="matrix(1 0 0 1 -1 -167)" font-size="21" font-family="HelveticaNeue"><tspan y="466.9471" x="688.0928">&#x2026;</tspan></text>
<text xml:space="preserve" transform="matrix(1 0 0 1 -1 -167)" font-size="21" font-family="HelveticaNeue"><tspan y="289.9817" x="826.0007">&#x2026;</tspan></text>
<text xml:space="preserve" transform="matrix(1 0 0 1 -1 -167)" font-size="21" font-family="HelveticaNeue"><tspan y="462.918" x="125">&#x2026;</tspan></text>
<text xml:space="preserve" transform="matrix(1 0 0 1 -1 -167)" font-size="21" font-family="HelveticaNeue"><tspan y="462.918" x="341.1551">&#x2026;</tspan></text>
<text xml:space="preserve" transform="matrix(1 0 0 1 -1 -167)" font-size="21" font-family="HelveticaNeue"><tspan y="375.3131" x="141.099">&#x2026;</tspan></text>
</g>
</g>
</svg>
